<svg width="68" height="68" viewBox="0 0 68 68" fill="none" xmlns="http://www.w3.org/2000/svg">
<circle cx="34" cy="34" r="30.6944" stroke="#131313" stroke-width="6.61111"/>
<path d="M20.3056 53.8331C19.3612 54.7776 19.1251 56.3516 19.1251 57.0206L14.0487 56.9026C13.2223 55.053 11.8292 51.3539 12.8681 51.3539C13.907 51.3539 15.5834 50.2521 16.2917 49.7012C17.3936 50.803 19.739 53.172 20.3056 53.8331Z" fill="#131313"/>
<path d="M47.6944 54.0694C48.6388 55.0139 48.8749 56.588 48.8749 57.2569L53.9513 57.1389C54.7777 55.2894 56.1708 51.5903 55.1319 51.5903C54.093 51.5903 52.4166 50.4884 51.7083 49.9375C50.6064 51.0394 48.261 53.4083 47.6944 54.0694Z" fill="#131313"/>
<path d="M9.5625 28.2148C8.33472 28.026 7.83102 26.7195 7.79167 26.0898L4.25 29.2773C4.84028 31.2449 6.13889 35.0857 6.61111 34.7079C7.08333 34.3301 8.81481 34.3537 9.5625 34.3537V28.2148Z" fill="#131313"/>
<path d="M58.4375 28.3329C59.6653 28.144 60.287 26.7195 60.3264 26.0898L63.75 29.3954C63.1597 31.363 61.8611 35.2037 61.3889 34.826C60.9167 34.4482 59.1852 34.4718 58.4375 34.4718V28.3329Z" fill="#131313"/>
<path fill-rule="evenodd" clip-rule="evenodd" d="M10.8613 28.0975V34.8267C12.1993 35.6925 15.1349 38.1087 16.1738 40.8475C16.3583 41.334 16.5333 41.7752 16.6951 42.1829L16.6951 42.1831L16.6951 42.1831C17.6716 44.6449 18.1646 45.8879 17.3544 48.5212C19.5266 50.7878 21.0141 52.2989 21.4863 52.7712C22.5095 51.748 26.4447 49.7017 34.0002 49.7017C41.5558 49.7017 45.491 51.748 46.5141 52.7712C46.9863 52.2989 48.4738 50.7878 50.6461 48.5212C49.8358 45.8879 50.3289 44.6448 51.3053 42.1831L51.3055 42.1826C51.4672 41.775 51.6421 41.3339 51.8266 40.8475C52.8655 38.1087 55.8011 35.6925 57.1391 34.8267V28.0975C49.3002 24.9809 38.5005 24.792 34.0002 24.792C29.6196 24.7919 18.7002 24.9809 10.8613 28.0975ZM33.6462 42.5004C36.7106 42.5004 39.1948 40.0162 39.1948 36.9518C39.1948 33.8874 36.7106 31.4032 33.6462 31.4032C30.5818 31.4032 28.0976 33.8874 28.0976 36.9518C28.0976 40.0162 30.5818 42.5004 33.6462 42.5004Z" fill="#FFCC00"/>
<circle cx="33.646" cy="36.9517" r="3.65972" fill="#131313"/>
</svg>
