<svg width="100" height="70" viewBox="0 0 100 70" fill="none" xmlns="http://www.w3.org/2000/svg">
<path fill-rule="evenodd" clip-rule="evenodd" d="M49.4178 14L34.3421 18.4854C34.3421 18.4854 29.0724 36.2588 34.3421 44.9903C38.2545 51.4731 49.8043 56 49.8043 56C49.8043 56 61.3542 51.4731 65.2666 44.9903C70.5363 36.2588 65.2666 18.4854 65.2666 18.4854L49.4178 14ZM58.8487 31.3267C58.8487 31.3267 60.1917 31.8707 60.3278 32.0834C60.4639 32.296 60.6907 33.487 60.6907 35.4861C60.6907 37.4853 60.5092 39.5695 60.5092 39.5695H59.9649C59.9649 40.1224 59.8742 40.25 59.6928 40.25H55.9735C55.7013 40.25 55.6106 40.165 55.6106 39.5695H43.9991C43.9991 40.165 43.9084 40.25 43.6362 40.25H40.0076C39.7355 40.25 39.642 40.165 39.642 39.5695H39.1005C39.1005 39.5695 38.919 37.5278 38.919 35.4861C38.919 33.4445 39.1005 32.2535 39.2819 32.0834C39.4633 31.9132 40.761 31.3267 40.761 31.3267C40.7384 31.3157 40.7164 31.3056 40.6952 31.2958C40.4979 31.2048 40.3678 31.1448 40.3678 30.7223C40.3678 30.2118 40.3705 30.0417 40.7306 30.0417H41.963C41.9658 30.0369 41.9688 30.0323 41.9715 30.0282L41.9715 30.0281L41.9725 30.0266C41.9774 30.019 41.9811 30.0131 41.9811 30.0102C42.1316 29.7261 42.2569 29.4805 42.3664 29.2661C42.9328 28.1561 43.0731 27.8812 44.0676 27.4177C45.656 26.6764 48.6364 26.6389 49.8048 26.6389C50.9733 26.6389 53.9537 26.6764 55.5435 27.4177C56.6208 27.9211 56.8069 28.3068 57.4287 29.595C57.4909 29.724 57.5576 29.8621 57.6299 30.0102C57.6349 30.0209 57.6404 30.0315 57.6454 30.0417H58.8764C59.2392 30.0417 59.2419 30.2118 59.2419 30.7223C59.2419 31.1448 59.1117 31.2048 58.9145 31.2958L58.9144 31.2958C58.8933 31.3056 58.8713 31.3157 58.8487 31.3267ZM41.3874 34.125C42.2184 34.123 43.0487 34.0796 43.8748 33.9949L44.1805 33.9549C44.1805 33.9549 44.1352 33.8273 43.9374 33.6929C43.5252 33.4072 43.0635 33.1904 42.5726 33.0523C41.6074 32.7856 41.0962 32.7639 40.5519 32.7639H40.4158L40.3873 32.8937C40.3473 33.1401 40.3396 33.3902 40.3641 33.6384C40.4234 34.1304 40.455 34.1302 41.1519 34.126L41.1524 34.1259C41.2235 34.1255 41.3016 34.125 41.3874 34.125ZM54.8849 37.5278L55.0854 37.0574V37.0599C55.2667 36.6357 55.0289 36.5262 54.797 36.4194L54.797 36.4194C54.783 36.4129 54.7691 36.4065 54.7553 36.4C54.7455 36.3954 54.7358 36.3908 54.7261 36.3862C54.053 36.0595 51.982 35.4861 49.8048 35.4861C47.6277 35.4861 45.597 36.1514 44.9022 36.3862C44.5434 36.507 44.3166 36.7197 44.498 37.0523C44.7425 37.5019 44.7248 37.5278 44.7248 37.5278H54.8849ZM42.9885 31.2531C43.1351 31.259 43.282 31.258 43.4285 31.2501H56.1803L56.2743 31.2532H56.2744L56.3388 31.2553C56.4795 31.2599 56.5558 31.2617 56.6244 31.2582C56.5535 31.1424 56.5019 31.0188 56.4481 30.89C56.4096 30.7978 56.37 30.7028 56.3214 30.6061C55.9567 29.8835 55.5435 29.0647 54.8046 28.7197C53.7369 28.2195 51.5239 27.9966 49.8048 27.9966C48.0858 27.9966 45.8728 28.2212 44.8051 28.7197C44.0662 29.0647 43.6512 29.883 43.2883 30.6061C43.2392 30.7036 43.1991 30.7994 43.1602 30.8924L43.1601 30.8924L43.1601 30.8924L43.1601 30.8925C43.1073 31.0185 43.0566 31.1395 42.9885 31.2531ZM59.1801 33.7523L59.1801 33.7523C59.186 33.7172 59.1925 33.6788 59.2002 33.6367V33.6384C59.2406 33.3926 59.2481 33.1429 59.2224 32.8954C59.22 32.8616 59.2043 32.8299 59.1785 32.8063C59.1526 32.7828 59.1183 32.769 59.0823 32.7677C58.5457 32.7499 58.0023 32.7856 57.0371 33.0523C56.5447 33.187 56.0824 33.404 55.6723 33.6929C55.5689 33.7686 55.6056 33.9732 55.7349 33.9949C56.561 34.0796 57.3913 34.123 58.2223 34.125C58.2948 34.125 58.3615 34.1253 58.4227 34.1255C58.8418 34.127 59.0077 34.1276 59.0875 34.045C59.1397 33.9908 59.1549 33.901 59.1801 33.7523ZM49.4176 20.1952C50.0589 20.1952 50.5788 19.6729 50.5788 19.0285C50.5788 18.3842 50.0589 17.8619 49.4176 17.8619C48.7763 17.8619 48.2565 18.3842 48.2565 19.0285C48.2565 19.6729 48.7763 20.1952 49.4176 20.1952Z" fill="#FFCC00"/>
</svg>
