<svg width="100" height="70" viewBox="0 0 100 70" fill="none" xmlns="http://www.w3.org/2000/svg">
<g clip-path="url(#clip0)">
<path fill-rule="evenodd" clip-rule="evenodd" d="M25.7695 40.8088C28.0362 40.8088 30.0839 39.8321 31.5207 38.2753V39.3179H32.1067C30.4735 40.9406 28.2322 41.9413 25.7695 41.9413C22.1221 41.9413 18.9605 39.7465 17.5406 36.5865H18.7095V36.361C19.9913 38.9903 22.6765 40.8088 25.7695 40.8088ZM33.9739 36.6405H32.6863C32.8497 36.3363 32.994 36.0202 33.1175 35.6939H34.344C34.2379 36.0179 34.1141 36.3338 33.9739 36.6405ZM34.7946 33.0165C34.7956 32.9605 34.7961 32.9043 34.7961 32.848C34.7628 32.8813 33.597 32.9339 33.6303 32.8813C33.6303 32.9265 33.6299 32.9715 33.6291 33.0165H34.7946ZM18.1427 34.8015H16.9522C16.8151 34.1724 16.7428 33.5188 16.7428 32.848V29.2174C11.9131 29.0175 8.04932 25.0538 8.04932 20.1575C8.04932 17.8925 8.88203 15.794 10.3476 14.1286C10.2477 13.8955 10.1811 13.6623 10.1811 13.3958C10.1811 12.3966 10.9805 11.5972 11.9797 11.5972C12.979 11.5972 13.7784 12.3966 13.7784 13.3958C13.7784 14.3951 12.979 15.1945 11.9797 15.1945C11.6799 15.1945 11.4135 15.1279 11.147 14.9946C9.91459 16.3936 9.21512 18.2256 9.21512 20.1575C9.21512 24.5209 12.7791 28.0849 17.1425 28.0849C21.506 28.0849 25.07 24.5209 25.07 20.1575C25.07 18.2589 24.4038 16.4935 23.2047 15.0613C23.0049 15.1612 22.7717 15.1945 22.5385 15.1945C21.5393 15.1945 20.7399 14.3951 20.7399 13.3958C20.7399 12.3966 21.5393 11.5972 22.5385 11.5972C23.5378 11.5972 24.3372 12.3966 24.3372 13.3958C24.3372 13.7289 24.2373 14.0287 24.0707 14.2952C25.4697 15.9273 26.2358 17.9924 26.2358 20.1575C26.2358 24.9206 22.5718 28.8177 17.9086 29.2174V32.8813C17.9086 33.543 17.9898 34.1863 18.1427 34.8015Z" fill="#FFCC00"/>
<circle cx="34.3277" cy="23.6455" r="2.90054" stroke="#FFCC00" stroke-width="2.23118"/>
<rect x="33.6221" y="26.7693" width="1.15154" height="2.44191" fill="#FFCC00"/>
</g>
<path fill-rule="evenodd" clip-rule="evenodd" d="M49.268 46.6971C50.1399 47.4295 51.0939 48 52.0934 48.4119L52.1118 53.1859C50.9769 53.1721 49.7375 53.1575 48.394 53.1421L35.4804 52.994L35.4906 52.1063C35.5548 51.7411 35.5903 51.3658 35.5946 50.9829C35.6259 48.2523 34.0653 45.8743 31.7757 44.7315C31.7684 44.7258 31.7588 44.7211 31.7479 44.7177C31.692 44.6901 31.6358 44.6633 31.5791 44.6373C31.5732 44.6306 31.5678 44.6238 31.5629 44.6167C31.5245 44.5613 31.4446 44.5218 31.3693 44.5209C31.2989 44.5201 31.2414 44.4984 31.2417 44.4726C31.242 44.4469 31.2007 44.4253 31.15 44.4248C31.0993 44.4242 31.058 44.4026 31.0583 44.3769C31.0586 44.3512 30.9966 44.3294 30.9205 44.3285C30.8444 44.3276 30.7823 44.3059 30.7826 44.2801C30.7829 44.2544 30.7209 44.2326 30.6448 44.2317C30.5687 44.2309 30.5067 44.2091 30.507 44.1833C30.5073 44.1576 30.4245 44.1356 30.323 44.1344C30.2216 44.1333 30.1388 44.1112 30.1391 44.0855C30.1394 44.0595 30.0166 44.0373 29.8629 44.0355C29.7092 44.0338 29.5864 44.0116 29.5867 43.9855C29.5871 43.9561 29.2798 43.9352 28.7571 43.9292C28.2344 43.9232 27.9267 43.937 27.9264 43.9665C27.9261 43.9922 27.8221 44.0121 27.6953 44.0107C27.5684 44.0092 27.4644 44.0291 27.4641 44.0548C27.4638 44.0806 27.3806 44.1007 27.2791 44.0995C27.1777 44.0984 27.0944 44.1185 27.0941 44.1442C27.0938 44.17 27.0313 44.1903 26.9552 44.1894C26.8791 44.1886 26.8166 44.2089 26.8163 44.2346C26.816 44.2604 26.7535 44.2807 26.6774 44.2799C26.6013 44.279 26.5388 44.2993 26.5385 44.3251C26.5382 44.3508 26.4965 44.3714 26.4458 44.3708C26.395 44.3702 26.3533 44.3908 26.353 44.4166L26.3527 44.4195C26.3151 44.4331 26.2777 44.447 26.2404 44.4612C26.2319 44.4617 26.2231 44.4619 26.2141 44.4618C26.138 44.4609 26.0755 44.4813 26.0752 44.507C26.0751 44.5173 26.0684 44.5267 26.0572 44.5343L26.0239 44.5482C26.0114 44.5513 25.9973 44.5529 25.9824 44.5528C25.9317 44.5522 25.89 44.5728 25.8897 44.5985C25.8896 44.6015 25.889 44.6045 25.8879 44.6073C25.8609 44.6194 25.834 44.6317 25.8071 44.6441L25.7969 44.6443C25.7462 44.6437 25.7044 44.6643 25.7041 44.69L25.7039 44.6929C25.6748 44.707 25.6458 44.7213 25.6169 44.7357L25.6113 44.7358C25.5606 44.7352 25.5189 44.7558 25.5186 44.7815C25.5186 44.7831 25.5184 44.7847 25.518 44.7863C25.4925 44.7996 25.467 44.8131 25.4416 44.8267L25.433 44.8272L25.4258 44.8272C25.3751 44.8267 25.3333 44.8472 25.333 44.873C25.333 44.8788 25.331 44.8843 25.3276 44.8894L25.281 44.9158C25.2715 44.9179 25.2612 44.919 25.2504 44.9189C25.2053 44.9183 25.138 44.9597 25.1008 45.0108C25.0947 45.0192 25.0879 45.0273 25.0807 45.035C25.0453 45.0568 25.0102 45.079 24.9753 45.1014C24.9704 45.1024 24.9658 45.1028 24.9614 45.1028C24.9219 45.1023 24.8591 45.1437 24.822 45.1948L24.8146 45.2045L24.8078 45.2127C24.7728 45.2367 24.7381 45.2609 24.7036 45.2855C24.6991 45.2865 24.6948 45.287 24.6909 45.2869C24.6559 45.2865 24.5684 45.3487 24.4965 45.4251C24.4245 45.5016 24.3425 45.5638 24.3143 45.5635C24.2473 45.5627 23.4714 46.3324 23.4706 46.4004C23.4705 46.4044 23.4693 46.4094 23.4669 46.4152C23.4178 46.4725 23.3695 46.5306 23.3222 46.5895C23.2629 46.6459 23.213 46.7108 23.1959 46.7516C23.1492 46.8133 23.1036 46.8759 23.059 46.9393C23.039 46.9603 23.0225 46.984 23.0125 47.0061C22.9651 47.0751 22.9189 47.1451 22.874 47.2159C22.8497 47.2417 22.8303 47.2729 22.8207 47.3013C22.7938 47.345 22.7675 47.3891 22.7416 47.4334C22.7381 47.4379 22.735 47.4433 22.7322 47.4495C22.1929 48.3793 21.8644 49.4473 21.8128 50.589C21.8114 50.5899 21.8099 50.5904 21.8084 50.5903C21.7367 50.5895 21.7277 52.2616 21.7994 52.2867C21.893 52.3196 21.6187 52.5542 21.4883 52.5527C21.4238 52.552 21.3712 52.5303 21.3715 52.5046C21.3718 52.4779 21.2337 52.4562 21.0492 52.4541C20.8647 52.452 20.7266 52.4303 20.7269 52.4036C20.7272 52.3763 20.5737 52.355 20.3585 52.3525C20.1432 52.3501 19.9897 52.3288 19.99 52.3015C19.9903 52.2748 19.8522 52.2531 19.6677 52.251C19.4833 52.2489 19.3451 52.2272 19.3454 52.2005C19.3457 52.1732 19.1922 52.1519 18.977 52.1495C18.7618 52.147 18.6083 52.1257 18.6086 52.0984C18.6089 52.0711 18.4554 52.0499 18.2402 52.0474C18.0249 52.0449 17.8714 52.0236 17.8717 51.9964C17.872 51.9691 17.7185 51.9478 17.5033 51.9453C17.2881 51.9429 17.1346 51.9216 17.1349 51.8943C17.1352 51.8676 16.9971 51.8459 16.8126 51.8438C16.6281 51.8417 16.49 51.82 16.4903 51.7933C16.4906 51.766 16.3371 51.7447 16.1218 51.7422C15.9066 51.7398 15.7531 51.7185 15.7534 51.6912C15.7537 51.6639 15.6002 51.6426 15.385 51.6402C15.1698 51.6377 15.0163 51.6164 15.0166 51.5891C15.0169 51.5614 14.848 51.5404 14.602 51.5376C14.3561 51.5348 14.1872 51.5138 14.1875 51.486C14.1878 51.4593 14.0497 51.4376 13.8652 51.4355C13.6807 51.4334 13.5426 51.4117 13.5429 51.385C13.5432 51.3593 13.4604 51.3372 13.3589 51.3361C13.2575 51.3349 13.1747 51.3129 13.175 51.2872C13.1753 51.2614 13.1132 51.2396 13.0371 51.2388C12.961 51.2379 12.899 51.2161 12.8993 51.1904C12.8996 51.1646 12.8583 51.1431 12.8076 51.1425C12.7569 51.1419 12.7156 51.1204 12.7159 51.0946C12.7162 51.0689 12.6795 51.0474 12.6344 51.0469C12.5892 51.0464 12.5229 51.0035 12.4869 50.9516C12.4509 50.8997 12.3941 50.8569 12.3605 50.8565C12.327 50.8561 12.1372 50.6854 11.9388 50.4772C11.7404 50.2689 11.546 50.0982 11.5069 50.0978C11.4665 50.0973 11.4362 50.0565 11.4368 50.0033C11.4374 49.9504 11.4071 49.9094 11.3672 49.9089C11.3283 49.9085 11.2253 49.8343 11.1384 49.744C11.0515 49.6538 10.9808 49.5476 10.9812 49.5081C10.9816 49.4687 10.9613 49.4361 10.9359 49.4358C10.9105 49.4356 10.8903 49.3932 10.8908 49.3417C10.8914 49.2902 10.8712 49.2479 10.8458 49.2476C10.8204 49.2473 10.8004 49.1839 10.8013 49.1066C10.8022 49.0294 10.7821 48.966 10.7568 48.9657C10.7299 48.9654 10.7124 48.8092 10.7149 48.5907C10.7174 48.3723 10.6999 48.2161 10.673 48.2157C10.6434 48.2154 10.6321 47.7628 10.6413 46.9515C10.6506 46.1402 10.6722 45.6879 10.7018 45.6883C10.7272 45.6886 10.7487 45.6256 10.7496 45.5484C10.7504 45.4712 10.7719 45.4082 10.7973 45.4085C10.8226 45.4088 10.8439 45.3669 10.8445 45.3154C10.8451 45.2639 10.8663 45.2221 10.8917 45.2223C10.917 45.2226 10.9383 45.1807 10.9388 45.1293C10.9394 45.0778 10.9607 45.0359 10.986 45.0362C11.0114 45.0365 11.0326 44.9946 11.0332 44.9431C11.0338 44.8916 11.055 44.8497 11.0804 44.85C11.1058 44.8503 11.127 44.8084 11.1276 44.7569C11.1282 44.7055 11.1494 44.6636 11.1748 44.6639C11.2001 44.6641 11.2214 44.6223 11.222 44.5708C11.2225 44.5193 11.2438 44.4774 11.2691 44.4777C11.2945 44.478 11.3157 44.4361 11.3163 44.3846C11.3169 44.3331 11.3381 44.2912 11.3635 44.2915C11.3889 44.2918 11.4101 44.2499 11.4107 44.1985C11.4113 44.147 11.4325 44.1051 11.4579 44.1054C11.4833 44.1057 11.5045 44.0638 11.5051 44.0123C11.5057 43.9608 11.5269 43.9189 11.5523 43.9192C11.5776 43.9195 11.5991 43.8566 11.6 43.7793C11.6009 43.7021 11.6223 43.6391 11.6477 43.6394C11.6731 43.6397 11.695 43.5347 11.6965 43.4059C11.698 43.2772 11.7199 43.1722 11.7453 43.1724C11.7751 43.1728 11.7976 42.6269 11.809 41.6284C11.8204 40.6299 11.8429 40.084 11.8727 40.0844C11.899 40.0847 11.9204 39.9445 11.9226 39.7573C11.9247 39.57 11.9461 39.4299 11.9724 39.4302C11.9978 39.4305 12.0197 39.3254 12.0212 39.1967C12.0227 39.0679 12.0446 38.9629 12.07 38.9632C12.0953 38.9635 12.1171 38.8794 12.1182 38.7765C12.1194 38.6735 12.1411 38.5895 12.1665 38.5898C12.1919 38.5901 12.2133 38.5271 12.2142 38.4499C12.2151 38.3727 12.2366 38.3097 12.2619 38.31C12.2873 38.3103 12.3085 38.2684 12.3091 38.2169C12.3097 38.1654 12.3309 38.1236 12.3563 38.1239C12.3817 38.1241 12.4031 38.0658 12.4039 37.9943C12.4048 37.9179 12.4438 37.8368 12.4984 37.7978C12.5495 37.7613 12.5918 37.6986 12.5922 37.6584C12.5927 37.6183 12.6349 37.5556 12.6861 37.5191C12.7372 37.4826 12.7794 37.4242 12.7798 37.3895C12.7807 37.3118 12.8945 37.1938 12.9678 37.1946C12.9975 37.195 13.0807 37.1327 13.1526 37.0563C13.2246 36.9799 13.3166 36.9178 13.3572 36.9182C13.3978 36.9187 13.4312 36.898 13.4315 36.8723C13.4317 36.8465 13.4942 36.8262 13.5703 36.8271C13.6464 36.8279 13.7089 36.8076 13.7092 36.7818C13.7095 36.7561 13.8135 36.7362 13.9404 36.7377C14.0672 36.7391 14.1712 36.7193 14.1715 36.6935C14.1718 36.6668 14.3104 36.6483 14.4949 36.6504C14.6794 36.6525 14.8179 36.634 14.8182 36.6073C14.8186 36.58 14.9725 36.5623 15.1877 36.5647C15.403 36.5672 15.5569 36.5494 15.5572 36.5222C15.5576 36.4941 15.7422 36.4775 16.019 36.4806C16.2957 36.4838 16.4804 36.4672 16.4807 36.4391C16.481 36.4105 16.6965 36.3948 17.0347 36.3987C17.3729 36.4025 17.5883 36.3868 17.5886 36.3582C17.5889 36.3325 17.6514 36.3121 17.7275 36.313C17.8036 36.3139 17.8661 36.2935 17.8664 36.2678C17.8667 36.242 17.9292 36.2217 18.0053 36.2226C18.0814 36.2234 18.1439 36.2031 18.1442 36.1773C18.1445 36.1516 18.207 36.1312 18.2831 36.1321C18.3592 36.133 18.4217 36.1126 18.422 36.0869C18.4223 36.0612 18.4848 36.0408 18.5609 36.0417C18.637 36.0425 18.6995 36.0222 18.6998 35.9965C18.7001 35.9707 18.7418 35.9501 18.7926 35.9507C18.8433 35.9513 18.885 35.9307 18.8853 35.905C18.8856 35.8792 18.9481 35.8589 19.0242 35.8597C19.1003 35.8606 19.1628 35.8403 19.1631 35.8145C19.1634 35.7888 19.2259 35.7684 19.302 35.7693C19.3781 35.7702 19.4406 35.7498 19.4409 35.7241C19.4412 35.6983 19.4829 35.6778 19.5337 35.6783C19.5844 35.6789 19.6261 35.6583 19.6264 35.6326C19.6267 35.6069 19.6892 35.5865 19.7653 35.5874C19.8414 35.5882 19.9039 35.5679 19.9042 35.5422C19.9045 35.5164 19.9463 35.4958 19.997 35.4964C20.0477 35.497 20.0895 35.4764 20.0898 35.4507C20.0901 35.4249 20.1526 35.4046 20.2287 35.4054C20.3048 35.4063 20.3673 35.386 20.3676 35.3602C20.3679 35.3345 20.4096 35.3139 20.4603 35.3145C20.5111 35.3151 20.5528 35.2945 20.5531 35.2687C20.5534 35.243 20.5951 35.2224 20.6459 35.223C20.6966 35.2236 20.7384 35.203 20.7387 35.1772C20.7389 35.1515 20.8014 35.1311 20.8775 35.132C20.9536 35.1329 21.0161 35.1125 21.0164 35.0868C21.0167 35.0611 21.0585 35.0405 21.1092 35.0411C21.1599 35.0416 21.2017 35.021 21.202 34.9953C21.2023 34.9696 21.244 34.949 21.2948 34.9496C21.3455 34.9501 21.3872 34.9296 21.3875 34.9038C21.3878 34.8781 21.4503 34.8577 21.5264 34.8586C21.6025 34.8595 21.665 34.8391 21.6653 34.8134C21.6656 34.7876 21.7074 34.767 21.7581 34.7676C21.8088 34.7682 21.8506 34.7476 21.8509 34.7219C21.8512 34.6961 21.8929 34.6755 21.9436 34.6761C21.9944 34.6767 22.0361 34.6561 22.0364 34.6304C22.0367 34.6046 22.0992 34.5843 22.1753 34.5852C22.2514 34.586 22.3139 34.5657 22.3142 34.5399C22.3145 34.5142 22.3562 34.4936 22.407 34.4942C22.4577 34.4948 22.4994 34.4742 22.4997 34.4484C22.5 34.4227 22.5418 34.4021 22.5925 34.4027C22.6432 34.4033 22.685 34.3827 22.6853 34.357C22.6856 34.3312 22.7481 34.3109 22.8242 34.3117C22.9003 34.3126 22.9628 34.2923 22.9631 34.2665C22.9634 34.2408 23.0051 34.2202 23.0558 34.2208C23.1066 34.2214 23.1483 34.2008 23.1486 34.175C23.1489 34.1493 23.1907 34.1287 23.2414 34.1293C23.2921 34.1299 23.3339 34.1093 23.3342 34.0835C23.3345 34.0578 23.3762 34.0372 23.4269 34.0378C23.4777 34.0384 23.5194 34.0178 23.5197 33.992C23.52 33.9663 23.5617 33.9457 23.6125 33.9463C23.6632 33.9469 23.705 33.9263 23.7053 33.9005C23.7055 33.8748 23.768 33.8544 23.8441 33.8553C23.9202 33.8562 23.9827 33.8358 23.983 33.8101C23.9833 33.7844 24.0251 33.7638 24.0758 33.7644C24.1265 33.7649 24.1683 33.7443 24.1686 33.7186C24.1689 33.6929 24.2106 33.6723 24.2614 33.6729C24.3121 33.6734 24.3538 33.6529 24.3541 33.6271C24.3544 33.6014 24.3962 33.5808 24.4469 33.5814C24.4976 33.5819 24.5394 33.5614 24.5397 33.5356C24.54 33.5099 24.5817 33.4893 24.6324 33.4899C24.6832 33.4904 24.7249 33.4699 24.7252 33.4441C24.7255 33.4184 24.7673 33.3978 24.818 33.3984C24.8687 33.399 24.9105 33.3784 24.9108 33.3526C24.9111 33.3269 24.9736 33.3065 25.0497 33.3074C25.1258 33.3083 25.1883 33.2879 25.1886 33.2622C25.1888 33.2364 25.2306 33.2159 25.2813 33.2164C25.3321 33.217 25.3738 33.1964 25.3741 33.1707C25.3744 33.145 25.4161 33.1244 25.4669 33.1249C25.5176 33.1255 25.5594 33.1049 25.5596 33.0792C25.5599 33.0535 25.6017 33.0329 25.6524 33.0335C25.7031 33.034 25.7449 33.0134 25.7452 32.9877C25.7455 32.962 25.7872 32.9414 25.838 32.942C25.8887 32.9425 25.9304 32.922 25.9307 32.8962C25.931 32.8705 25.9728 32.8499 26.0235 32.8505C26.0742 32.851 26.116 32.8305 26.1163 32.8047C26.1166 32.779 26.1791 32.7586 26.2552 32.7595C26.3313 32.7604 26.3938 32.74 26.3941 32.7143C26.3944 32.6885 26.4361 32.6679 26.4868 32.6685C26.5376 32.6691 26.5793 32.6485 26.5796 32.6228C26.5799 32.597 26.6424 32.5767 26.7185 32.5776C26.7946 32.5784 26.8571 32.5581 26.8574 32.5323C26.8577 32.5066 26.8994 32.486 26.9502 32.4866C27.0009 32.4872 27.0427 32.4666 27.0429 32.4409C27.0432 32.4151 27.1057 32.3948 27.1818 32.3956C27.2579 32.3965 27.3204 32.3762 27.3207 32.3504C27.321 32.3247 27.3835 32.3043 27.4596 32.3052C27.5357 32.3061 27.5982 32.2857 27.5985 32.26C27.5988 32.2342 27.6613 32.2139 27.7374 32.2148C27.8135 32.2156 27.876 32.1953 27.8763 32.1695C27.8766 32.1438 27.9391 32.1234 28.0152 32.1243C28.0913 32.1252 28.1538 32.1048 28.1541 32.0791C28.1544 32.0534 28.2169 32.033 28.293 32.0339C28.3691 32.0348 28.4316 32.0144 28.4319 31.9887C28.4322 31.9629 28.4947 31.9426 28.5708 31.9434C28.6469 31.9443 28.7094 31.924 28.7097 31.8982C28.71 31.8725 28.7932 31.8524 28.8947 31.8535C28.9961 31.8547 29.0794 31.8346 29.0797 31.8088C29.08 31.7831 29.1425 31.7628 29.2186 31.7636C29.2947 31.7645 29.3572 31.7442 29.3575 31.7184C29.3578 31.6927 29.441 31.6726 29.5425 31.6737C29.6439 31.6749 29.7272 31.6548 29.7275 31.629C29.7278 31.6033 29.811 31.5832 29.9125 31.5843C30.014 31.5855 30.0972 31.5654 30.0975 31.5396C30.0978 31.5139 30.1811 31.4938 30.2825 31.495C30.384 31.4961 30.4673 31.476 30.4675 31.4503C30.4678 31.4245 30.5511 31.4044 30.6526 31.4056C30.754 31.4067 30.8373 31.3866 30.8376 31.3609C30.8379 31.3351 30.9211 31.315 31.0226 31.3162C31.124 31.3174 31.2073 31.2973 31.2076 31.2715C31.2079 31.2458 31.3119 31.2259 31.4387 31.2273C31.5656 31.2288 31.6696 31.2089 31.6699 31.1832C31.6702 31.1574 31.7534 31.1373 31.8549 31.1385C31.9563 31.1397 32.0396 31.1196 32.0399 31.0938C32.0402 31.0681 32.1442 31.0482 32.271 31.0496C32.3978 31.0511 32.5019 31.0312 32.5021 31.0055C32.5024 30.9797 32.6065 30.9599 32.7333 30.9613C32.8601 30.9628 32.9641 30.9429 32.9644 30.9172C32.9647 30.8911 33.0879 30.8718 33.2417 30.8735C33.3954 30.8753 33.5186 30.8559 33.5189 30.8299C33.5192 30.8039 33.6425 30.7845 33.7962 30.7863C33.9499 30.788 34.0731 30.7687 34.0734 30.7426C34.0737 30.7143 34.2738 30.6981 34.5813 30.7016C34.8888 30.7052 35.0888 30.689 35.0891 30.6607C35.0895 30.6315 35.351 30.6168 35.7815 30.6218C36.2119 30.6267 36.4735 30.612 36.4738 30.5829C36.4741 30.5537 36.751 30.5393 37.2122 30.5446C37.6734 30.5499 37.9504 30.5355 37.9507 30.5062C37.951 30.4766 38.2741 30.4631 38.8275 30.4695C39.3809 30.4758 39.704 30.4623 39.7043 30.4327C39.7047 30.4027 40.1199 30.3907 40.8578 30.3991C41.5958 30.4076 42.011 30.3955 42.0114 30.3655C42.0117 30.3348 43.088 30.3311 45.1481 30.3547C47.2081 30.3783 48.284 30.4067 48.2837 30.4374C48.2834 30.4623 48.5205 30.4811 48.9409 30.4905C48.5923 30.8088 48.2607 31.1538 47.9488 31.5251C47.4482 32.121 47.0232 32.7553 46.6729 33.4162C46.6675 33.2029 46.656 33.087 46.6391 33.0868C46.6137 33.0865 46.5937 33.0231 46.5946 32.9459C46.5958 32.8367 46.5757 32.8052 46.5039 32.8044C46.4532 32.8038 46.4119 32.7823 46.4122 32.7565C46.4125 32.7305 46.2897 32.7083 46.136 32.7066C45.9823 32.7048 45.8595 32.6826 45.8598 32.6566C45.8602 32.6285 45.6759 32.6077 45.3992 32.6045C45.1225 32.6013 44.9378 32.6179 44.9374 32.646C44.9371 32.6765 44.2298 32.6847 42.9076 32.6696C41.5855 32.6544 40.8782 32.6626 40.8778 32.6931C40.8775 32.7221 40.6313 32.7371 40.2316 32.7325C39.8319 32.7279 39.5857 32.7429 39.5854 32.7719C39.5851 32.8 39.4004 32.8166 39.1237 32.8134C38.847 32.8102 38.6623 32.8268 38.6619 32.8549C38.6616 32.8822 38.5077 32.9 38.2925 32.8975C38.0772 32.895 37.9233 32.9128 37.923 32.9401C37.9227 32.9668 37.7841 32.9853 37.5996 32.9832C37.4151 32.9811 37.2765 32.9996 37.2762 33.0263C37.2759 33.052 37.1719 33.0719 37.0451 33.0704C36.9183 33.069 36.8142 33.0889 36.814 33.1146C36.8137 33.1404 36.7512 33.1607 36.6751 33.1598C36.599 33.159 36.5365 33.1793 36.5362 33.205C36.5359 33.2308 36.4526 33.2509 36.3512 33.2497C36.2497 33.2486 36.1664 33.2687 36.1661 33.2944C36.1658 33.3202 36.1033 33.3405 36.0272 33.3396C35.9512 33.3388 35.8886 33.3591 35.8884 33.3849C35.8881 33.4106 35.8048 33.4307 35.7033 33.4296C35.6019 33.4284 35.5186 33.4485 35.5183 33.4742C35.518 33.5 35.4348 33.5201 35.3333 33.5189C35.2319 33.5178 35.1486 33.5379 35.1483 33.5636C35.148 33.5894 35.0648 33.6095 34.9633 33.6083C34.8618 33.6071 34.7786 33.6273 34.7783 33.653C34.778 33.6787 34.7155 33.6991 34.6394 33.6982C34.5633 33.6973 34.5008 33.7177 34.5005 33.7434C34.5002 33.7692 34.4585 33.7898 34.4077 33.7892C34.357 33.7886 34.3152 33.8092 34.3149 33.8349C34.3147 33.8607 34.2522 33.881 34.1761 33.8802C34.1 33.8793 34.0375 33.8996 34.0372 33.9254C34.0369 33.9511 33.9951 33.9717 33.9444 33.9711C33.8937 33.9705 33.8519 33.9911 33.8516 34.0169C33.8513 34.0426 33.7888 34.063 33.7127 34.0621C33.6366 34.0612 33.5741 34.0816 33.5738 34.1073C33.5735 34.133 33.5318 34.1536 33.4811 34.1531C33.4303 34.1525 33.3886 34.1731 33.3883 34.1988C33.388 34.2245 33.3462 34.2451 33.2955 34.2445C33.2448 34.244 33.203 34.2646 33.2027 34.2903C33.2024 34.316 33.1607 34.3366 33.11 34.336C33.0592 34.3355 33.0175 34.356 33.0172 34.3818C33.0169 34.4075 32.9752 34.4281 32.9244 34.4275C32.8737 34.427 32.8319 34.4475 32.8316 34.4733C32.8314 34.499 32.7896 34.5196 32.7389 34.519C32.6881 34.5184 32.6464 34.539 32.6461 34.5648C32.6458 34.5905 32.6041 34.6111 32.5533 34.6105C32.5026 34.6099 32.4608 34.6305 32.4606 34.6563C32.4603 34.682 32.4231 34.7027 32.378 34.7021C32.3328 34.7016 32.2655 34.743 32.2284 34.794C32.1912 34.8451 32.1285 34.8865 32.0889 34.8861C32.0494 34.8856 31.9867 34.927 31.9495 34.9781C31.9123 35.0292 31.8496 35.0706 31.8101 35.0701C31.7706 35.0697 31.7078 35.1111 31.6707 35.1621C31.6335 35.2132 31.5662 35.2546 31.521 35.254C31.4759 35.2535 31.4387 35.2742 31.4385 35.2999C31.4382 35.3257 31.401 35.3463 31.3559 35.3458C31.3107 35.3453 31.2434 35.3866 31.2063 35.4377C31.1691 35.4887 31.1018 35.5301 31.0566 35.5296C31.0054 35.529 30.9742 35.5637 30.9735 35.6223C30.9729 35.6737 30.9517 35.7156 30.9263 35.7153C30.901 35.715 30.8793 35.7991 30.8781 35.902C30.8769 36.005 30.8552 36.089 30.8298 36.0887C30.8045 36.0884 30.7828 36.1724 30.7816 36.2754C30.7804 36.3784 30.7587 36.4624 30.7333 36.4621C30.708 36.4618 30.6862 36.5458 30.6851 36.6488C30.6839 36.7518 30.6622 36.8358 30.6368 36.8355C30.6115 36.8352 30.5897 36.9192 30.5886 37.0222C30.5874 37.1251 30.5657 37.2092 30.5403 37.2089C30.5128 37.2086 30.4921 37.3889 30.4891 37.6563C30.4835 38.1461 30.522 38.2385 30.7328 38.2409C30.7981 38.2417 30.8512 38.2633 30.8509 38.2891C30.8506 38.3151 30.9734 38.3373 31.1271 38.3391C31.2808 38.3408 31.4036 38.363 31.4033 38.389C31.4029 38.4188 31.7717 38.4401 32.4174 38.4475C33.063 38.4549 33.4318 38.4761 33.4315 38.5059C33.4311 38.5362 34.0151 38.5594 35.0912 38.5718C36.1674 38.5841 36.7517 38.5743 36.7521 38.544C36.7524 38.5135 37.4444 38.5051 38.7358 38.5199C40.0271 38.5347 40.7191 38.5263 40.7195 38.4958C40.7198 38.4657 41.1966 38.4545 42.0575 38.4644C42.9184 38.4743 43.3951 38.4631 43.3955 38.4329C43.3958 38.403 43.7957 38.3907 44.5029 38.3988C44.9284 38.4037 45.2427 38.4012 45.4256 38.3919C45.4101 41.4813 46.7175 44.5546 49.268 46.6971ZM60.1503 53.3L60.1317 48.4768C61.7523 47.842 63.2418 46.8044 64.44 45.3779C66.5699 42.8424 67.3308 39.613 66.801 36.588C66.8148 36.5925 66.831 36.5951 66.8484 36.5953C66.8991 36.5959 66.9404 36.6174 66.9401 36.6432C66.9398 36.6689 66.981 36.6904 67.0318 36.691C67.0825 36.6916 67.1238 36.7131 67.1235 36.7389C67.1232 36.7646 67.1599 36.7861 67.205 36.7866C67.2501 36.7872 67.3165 36.83 67.3525 36.8819C67.3885 36.9339 67.4548 36.9767 67.5 36.9773C67.5451 36.9778 67.5818 36.9993 67.5815 37.025C67.5812 37.0507 67.6225 37.0723 67.6732 37.0729C67.7239 37.0735 67.7652 37.095 67.7649 37.1207C67.7646 37.1465 67.8059 37.168 67.8566 37.1686C67.9073 37.1692 67.9486 37.1907 67.9483 37.2165C67.948 37.2422 67.9893 37.2637 68.04 37.2643C68.0907 37.2649 68.132 37.2864 68.1317 37.3122C68.1314 37.3379 68.1681 37.3594 68.2132 37.3599C68.2584 37.3604 68.3247 37.4033 68.3607 37.4552C68.3967 37.5071 68.463 37.55 68.5082 37.5506C68.5533 37.5511 68.59 37.5726 68.5897 37.5983C68.5894 37.624 68.6307 37.6456 68.6814 37.6462C68.7322 37.6467 68.7734 37.6683 68.7731 37.694C68.7728 37.7198 68.8141 37.7413 68.8648 37.7419C68.9156 37.7425 68.9568 37.764 68.9565 37.7897C68.9562 37.8155 68.9975 37.837 69.0482 37.8376C69.099 37.8382 69.1402 37.8597 69.14 37.8855C69.1397 37.9112 69.1764 37.9327 69.2215 37.9332C69.2666 37.9337 69.333 37.9766 69.369 38.0285C69.4049 38.0804 69.4713 38.1233 69.5164 38.1238C69.5615 38.1244 69.5982 38.1458 69.5979 38.1716C69.5977 38.1973 69.6389 38.2189 69.6897 38.2195C69.7404 38.22 69.7817 38.2416 69.7814 38.2673C69.7811 38.2931 69.8223 38.3146 69.8731 38.3152C69.9238 38.3158 69.9651 38.3373 69.9648 38.363C69.9645 38.3888 70.0012 38.4103 70.0463 38.4108C70.0914 38.4113 70.1578 38.4542 70.1938 38.5061C70.2495 38.5866 70.3121 38.6011 70.618 38.6046C70.8264 38.607 70.9765 38.6283 70.9762 38.6555C70.9759 38.6848 71.2524 38.7055 71.7136 38.7108C72.1748 38.7161 72.4513 38.7368 72.451 38.766C72.4507 38.7948 72.681 38.8155 73.05 38.8197C73.419 38.8239 73.6494 38.8446 73.649 38.8734C73.6487 38.9015 73.833 38.9223 74.1097 38.9255C74.3864 38.9287 74.5707 38.9495 74.5704 38.9776C74.57 39.0057 74.7543 39.0265 75.031 39.0297C75.3077 39.0328 75.492 39.0537 75.4917 39.0818C75.4914 39.1091 75.6449 39.1303 75.8601 39.1328C76.0754 39.1353 76.2289 39.1565 76.2285 39.1838C76.2282 39.2106 76.3664 39.2322 76.5508 39.2343C76.7353 39.2365 76.8735 39.2581 76.8732 39.2848C76.8728 39.3121 77.0263 39.3334 77.2416 39.3359C77.4568 39.3384 77.6103 39.3596 77.61 39.3869C77.6097 39.4136 77.7478 39.4353 77.9323 39.4374C78.1168 39.4395 78.2549 39.4612 78.2546 39.4879C78.2543 39.514 78.3771 39.5361 78.5308 39.5379C78.6845 39.5397 78.8073 39.5619 78.807 39.5879C78.8067 39.6139 78.9295 39.6361 79.0832 39.6379C79.2369 39.6396 79.3597 39.6618 79.3594 39.6878C79.3591 39.7136 79.4626 39.7358 79.5894 39.7373C79.7163 39.7387 79.8198 39.761 79.8195 39.7867C79.8192 39.8128 79.942 39.835 80.0957 39.8367C80.2494 39.8385 80.3722 39.8607 80.3719 39.8867C80.3716 39.9124 80.4751 39.9347 80.6019 39.9361C80.7288 39.9376 80.8323 39.9598 80.832 39.9856C80.8317 40.0113 80.9352 40.0336 81.0621 40.035C81.1889 40.0365 81.2924 40.0587 81.2921 40.0845C81.2918 40.1102 81.3954 40.1325 81.5222 40.1339C81.649 40.1354 81.7526 40.1576 81.7523 40.1834C81.752 40.2091 81.8555 40.2314 81.9823 40.2328C82.1092 40.2343 82.2127 40.2565 82.2124 40.2823C82.2121 40.308 82.3156 40.3303 82.4425 40.3317C82.5693 40.3332 82.6728 40.3554 82.6725 40.3812C82.6722 40.4069 82.755 40.4289 82.8565 40.4301C82.9579 40.4313 83.0407 40.4533 83.0404 40.479C83.0401 40.5048 83.1229 40.5268 83.2244 40.5279C83.3258 40.5291 83.4086 40.5511 83.4083 40.5769C83.408 40.6026 83.4908 40.6246 83.5923 40.6258C83.6937 40.6269 83.7765 40.649 83.7762 40.6747C83.7759 40.7004 83.8587 40.7225 83.9602 40.7236C84.0616 40.7248 84.1444 40.7468 84.1441 40.7725C84.1438 40.7983 84.2266 40.8203 84.328 40.8215C84.4295 40.8226 84.5123 40.8446 84.512 40.8704C84.5117 40.8961 84.5737 40.9179 84.6498 40.9188C84.7259 40.9196 84.7879 40.9414 84.7876 40.9672C84.7873 40.9929 84.8701 41.0149 84.9716 41.0161C85.073 41.0173 85.1558 41.0393 85.1555 41.065C85.1552 41.0907 85.2173 41.1125 85.2934 41.1134C85.3695 41.1143 85.4315 41.136 85.4312 41.1618C85.4309 41.1875 85.4929 41.2093 85.569 41.2102C85.6451 41.2111 85.7071 41.2328 85.7068 41.2586C85.7065 41.2843 85.7686 41.3061 85.8447 41.307C85.9208 41.3078 85.9828 41.3296 85.9825 41.3554C85.9822 41.3811 86.0442 41.4029 86.1203 41.4037C86.1964 41.4046 86.2584 41.4264 86.2581 41.4521C86.2579 41.4779 86.3199 41.4997 86.396 41.5005C86.4721 41.5014 86.5341 41.5232 86.5338 41.5489C86.5335 41.5747 86.5748 41.5962 86.6255 41.5968C86.6762 41.5974 86.7175 41.6189 86.7172 41.6446C86.7169 41.6704 86.7789 41.6922 86.855 41.693C86.9311 41.6939 86.9931 41.7157 86.9929 41.7414C86.9926 41.7672 87.0338 41.7887 87.0846 41.7893C87.1353 41.7899 87.1766 41.8114 87.1763 41.8372C87.176 41.8629 87.238 41.8847 87.3141 41.8855C87.3902 41.8864 87.4522 41.9082 87.4519 41.9339C87.4516 41.9597 87.4929 41.9812 87.5436 41.9818C87.5944 41.9824 87.6356 42.0039 87.6353 42.0297C87.635 42.0554 87.6717 42.0769 87.7169 42.0774C87.762 42.0779 87.8284 42.1208 87.8643 42.1727C87.9003 42.2246 87.9667 42.2675 88.0118 42.268C88.0569 42.2685 88.0936 42.29 88.0933 42.3158C88.093 42.3415 88.1245 42.3629 88.1632 42.3634C88.2425 42.3643 88.6253 42.7449 88.6404 42.835H85.6458V43.1051C85.6122 43.1118 85.5934 43.1202 85.5933 43.1297C85.593 43.1557 85.4697 43.1751 85.316 43.1733C85.1623 43.1716 85.0391 43.191 85.0388 43.217C85.0385 43.2427 84.9967 43.2633 84.946 43.2627C84.8953 43.2621 84.8535 43.2827 84.8532 43.3085C84.8529 43.3342 84.8212 43.3549 84.7826 43.3545C84.6974 43.3535 84.1081 43.9291 84.1072 44.0143C84.1068 44.0477 84.0646 44.1049 84.0135 44.1414C83.9623 44.178 83.9201 44.2407 83.9196 44.2808C83.9192 44.3209 83.8769 44.3836 83.8258 44.4202C83.7746 44.4567 83.7324 44.5194 83.7319 44.5595C83.7315 44.5996 83.6893 44.6623 83.6381 44.6989C83.5869 44.7354 83.5447 44.7981 83.5443 44.8382C83.5438 44.8783 83.5016 44.9411 83.4504 44.9776C83.3993 45.0141 83.357 45.0815 83.3565 45.1273C83.3559 45.1731 83.3348 45.2103 83.3094 45.21C83.284 45.2097 83.2628 45.2516 83.2622 45.3031C83.2616 45.3546 83.2404 45.3965 83.215 45.3962C83.1897 45.3959 83.1684 45.4378 83.1678 45.4893C83.1668 45.5819 83.1975 45.5832 86.0262 45.6157L88.8856 45.6484L88.8863 45.5913H89.9005C89.9008 45.5984 89.9009 45.6058 89.9008 45.6133C89.8999 45.6905 89.92 45.7539 89.9453 45.7542C89.9707 45.7545 89.9907 45.8179 89.9898 45.8952C89.989 45.9724 90.009 46.0358 90.0344 46.0361C90.0597 46.0364 90.0798 46.0998 90.0789 46.177C90.078 46.2543 90.098 46.3177 90.1234 46.318C90.1488 46.3183 90.1688 46.3817 90.1679 46.4589C90.167 46.5362 90.1871 46.5996 90.2124 46.5999C90.2378 46.6002 90.2578 46.6636 90.257 46.7408C90.2561 46.8181 90.2761 46.8815 90.3015 46.8818C90.3268 46.8821 90.3466 46.9665 90.3455 47.0695C90.3443 47.1725 90.3641 47.257 90.3895 47.2573C90.4148 47.2576 90.4346 47.342 90.4334 47.445C90.4323 47.548 90.4521 47.6325 90.4774 47.6328C90.5028 47.6331 90.5228 47.6965 90.5219 47.7737C90.5211 47.8509 90.5411 47.9144 90.5665 47.9147C90.5918 47.9149 90.6116 47.9994 90.6105 48.1024C90.6093 48.2054 90.6291 48.2899 90.6544 48.2901C90.6813 48.2905 90.6988 48.4467 90.6963 48.6651C90.6938 48.8836 90.6728 49.0393 90.6459 49.039C90.6162 49.0387 90.5942 49.5307 90.584 50.4214L90.5683 51.8043L90.4538 51.9178C90.3908 51.9803 90.3118 52.0311 90.2782 52.0307C90.2446 52.0303 90.1867 52.0718 90.1495 52.1229C90.1124 52.1739 90.0451 52.2153 89.9999 52.2148C89.9548 52.2143 89.9176 52.2349 89.9173 52.2606C89.917 52.2864 89.8753 52.307 89.8245 52.3064C89.7738 52.3058 89.7321 52.3264 89.7318 52.3521C89.7315 52.3779 89.6897 52.3985 89.639 52.3979C89.5883 52.3973 89.5465 52.4179 89.5462 52.4436C89.5459 52.4694 89.4419 52.4892 89.3151 52.4878C89.1883 52.4863 89.0843 52.5062 89.084 52.5319C89.0837 52.5587 88.9451 52.5772 88.7606 52.5751C88.5761 52.5729 88.4375 52.5914 88.4372 52.6182C88.4369 52.6449 88.2983 52.6634 88.1138 52.6613C87.9294 52.6591 87.7908 52.6776 87.7905 52.7044C87.7902 52.7317 87.6362 52.7494 87.421 52.7469C87.2057 52.7445 87.0518 52.7622 87.0515 52.7895C87.0512 52.8162 86.9126 52.8347 86.7281 52.8326C86.5436 52.8305 86.4051 52.849 86.4047 52.8757C86.4044 52.9024 86.2659 52.9209 86.0814 52.9188C85.8969 52.9167 85.7583 52.9352 85.758 52.9619C85.7577 52.9892 85.6038 53.007 85.3885 53.0045C85.1733 53.002 85.0193 53.0198 85.019 53.0471C85.0187 53.0744 84.8648 53.0921 84.6495 53.0897C84.4343 53.0872 84.2803 53.1049 84.28 53.1322C84.2797 53.1613 84.0181 53.176 83.5877 53.1711C83.1573 53.1662 82.8957 53.1809 82.8954 53.21C82.8951 53.235 82.8166 53.2547 82.7192 53.2547C82.9571 52.5697 83.0901 51.8352 83.0988 51.0702C83.1424 47.2626 80.091 44.1407 76.2834 44.0971C74.2651 44.0741 72.4394 44.9206 71.1628 46.2884C71.0706 46.308 70.5135 46.8798 70.5126 46.9583C70.5122 46.9974 70.4911 47.0291 70.4657 47.0288C70.4403 47.0285 70.4191 47.0704 70.4185 47.1219C70.4179 47.1734 70.3967 47.2153 70.3713 47.215C70.3459 47.2147 70.3247 47.2566 70.3241 47.3081C70.3235 47.3596 70.3023 47.4015 70.2769 47.4012C70.2516 47.4009 70.2303 47.4428 70.2298 47.4942C70.2292 47.5457 70.2079 47.5876 70.1826 47.5873C70.1572 47.587 70.136 47.6289 70.1354 47.6804C70.1352 47.7002 70.1319 47.7185 70.1265 47.7336L70.1125 47.7598C70.1054 47.7686 70.097 47.7736 70.0882 47.7735C70.0628 47.7732 70.0416 47.8151 70.041 47.8666C70.0408 47.882 70.0388 47.8965 70.0354 47.9093L70.0159 47.9485C70.0093 47.9557 70.0018 47.9597 69.9938 47.9597C69.9685 47.9594 69.9472 48.0012 69.9466 48.0527C69.946 48.1042 69.9248 48.1461 69.8995 48.1458C69.8741 48.1455 69.8526 48.2085 69.8517 48.2857C69.8516 48.2939 69.8513 48.302 69.8508 48.3099C69.8345 48.3483 69.8187 48.3868 69.8031 48.4256C69.7806 48.4267 69.7613 48.4775 69.7571 48.5434C69.7364 48.598 69.7163 48.653 69.6969 48.7083C69.677 48.7185 69.6619 48.7551 69.6614 48.7984C69.6613 48.8041 69.661 48.8096 69.6605 48.815L69.641 48.8746C69.6333 48.8854 69.6241 48.8916 69.6142 48.8915C69.5888 48.8912 69.5671 48.9752 69.5659 49.0782C69.5657 49.0973 69.5648 49.1157 69.5633 49.1331C69.5516 49.1749 69.5403 49.2168 69.5295 49.2589C69.5257 49.2629 69.5217 49.2649 69.5177 49.2649C69.4923 49.2646 69.4709 49.3276 69.47 49.4048C69.4691 49.482 69.4476 49.545 69.4223 49.5447C69.3969 49.5444 69.3752 49.6284 69.374 49.7314C69.3728 49.8343 69.3511 49.9183 69.3257 49.9181C69.3004 49.9178 69.2784 50.0228 69.277 50.1516C69.2755 50.2803 69.2535 50.3853 69.2282 50.385C69.2013 50.3847 69.1803 50.5405 69.1778 50.759C69.1753 50.9774 69.1543 51.1332 69.1274 51.1329C69.0987 51.1325 69.0783 51.3976 69.0733 51.8344C69.0683 52.2712 69.0479 52.5363 69.0192 52.536C68.9925 52.5357 68.9713 52.6847 68.969 52.8898C68.9638 53.3482 68.9342 53.3776 68.4825 53.3724C68.2804 53.3701 68.1331 53.3881 68.1328 53.4152C68.1324 53.446 66.9639 53.4486 64.7194 53.4229C62.4748 53.3971 61.3067 53.3677 61.307 53.3369C61.3071 53.3277 60.9207 53.3153 60.1503 53.3ZM77.0672 46.5428C76.9658 46.5416 76.883 46.5196 76.8833 46.4939C76.8836 46.4644 76.5763 46.4435 76.0536 46.4375C75.531 46.4316 75.2233 46.4453 75.223 46.4748C75.2227 46.5006 75.1187 46.5205 74.9918 46.519C74.865 46.5175 74.761 46.5374 74.7607 46.5632C74.7604 46.5889 74.6979 46.6092 74.6218 46.6084C74.5457 46.6075 74.4832 46.6279 74.4829 46.6536C74.4826 46.6793 74.4201 46.6997 74.344 46.6988C74.2679 46.6979 74.2054 46.7183 74.2051 46.744C74.2048 46.7698 74.1631 46.7904 74.1124 46.7898C74.0616 46.7892 74.0199 46.8098 74.0196 46.8355C74.0193 46.8613 73.9775 46.8819 73.9268 46.8813C73.8761 46.8807 73.8343 46.9013 73.834 46.927C73.8337 46.9528 73.7966 46.9734 73.7514 46.9729C73.7063 46.9724 73.639 47.0137 73.6018 47.0648C73.5647 47.1159 73.5057 47.1573 73.4707 47.1569C73.4358 47.1565 73.3483 47.2187 73.2763 47.2951C73.2044 47.3715 73.1221 47.4338 73.0936 47.4335C73.0266 47.4327 72.6245 47.8307 72.6237 47.8986C72.6234 47.9271 72.5392 48.0303 72.4366 48.1281C72.334 48.2259 72.2497 48.3344 72.2493 48.3694C72.2489 48.4044 72.2067 48.4628 72.1556 48.4994C72.1044 48.5359 72.0622 48.6032 72.0616 48.6491C72.0611 48.6948 72.0399 48.7321 72.0146 48.7318C71.9892 48.7315 71.968 48.7734 71.9674 48.8249C71.9668 48.8764 71.9456 48.9182 71.9202 48.918C71.8948 48.9177 71.8736 48.9596 71.873 49.011C71.8724 49.0625 71.8512 49.1044 71.8258 49.1041C71.8005 49.1038 71.779 49.1668 71.7781 49.244C71.7772 49.3212 71.7557 49.3842 71.7304 49.3839C71.705 49.3836 71.6838 49.4255 71.6832 49.477C71.6826 49.5285 71.6614 49.5703 71.636 49.5701C71.6106 49.5698 71.5889 49.6538 71.5877 49.7567C71.5866 49.8597 71.5649 49.9437 71.5395 49.9434C71.5132 49.9431 71.4918 50.0833 71.4897 50.2705C71.4875 50.4578 71.4661 50.5979 71.4398 50.5976C71.4129 50.5973 71.3919 50.7531 71.3894 50.9716C71.3869 51.19 71.4044 51.3462 71.4313 51.3465C71.4569 51.3468 71.476 51.4719 71.4742 51.6279C71.4724 51.7839 71.4915 51.909 71.5171 51.9092C71.5425 51.9095 71.5623 51.994 71.5611 52.097C71.5599 52.2 71.5797 52.2845 71.6051 52.2847C71.6304 52.285 71.6505 52.3485 71.6496 52.4257C71.6487 52.5029 71.6688 52.5663 71.6941 52.5666C71.7195 52.5669 71.7395 52.6303 71.7386 52.7076C71.7378 52.7848 71.7578 52.8482 71.7832 52.8485C71.8085 52.8488 71.8288 52.8912 71.8282 52.9427C71.8276 52.9941 71.8479 53.0365 71.8733 53.0368C71.8986 53.0371 71.919 53.0748 71.9184 53.1206C71.9179 53.1664 71.9586 53.2347 72.009 53.2724C72.0593 53.3101 72.1 53.3784 72.0995 53.4242C72.099 53.47 72.1193 53.5077 72.1446 53.508C72.17 53.5083 72.1904 53.5404 72.19 53.5793C72.189 53.6652 73.2123 54.7373 73.2962 54.7383C73.3289 54.7387 73.3851 54.7815 73.4211 54.8334C73.4571 54.8853 73.5234 54.9282 73.5686 54.9287C73.6137 54.9292 73.6504 54.9507 73.6501 54.9764C73.6498 55.0022 73.6911 55.0237 73.7418 55.0243C73.7925 55.0249 73.8338 55.0464 73.8335 55.0721C73.8332 55.0979 73.8745 55.1194 73.9252 55.12C73.9759 55.1206 74.0172 55.1421 74.0169 55.1679C74.0166 55.1936 74.0579 55.2151 74.1086 55.2157C74.1593 55.2163 74.2006 55.2379 74.2003 55.2636C74.2 55.2893 74.262 55.3111 74.3381 55.312C74.4142 55.3129 74.4763 55.3346 74.476 55.3604C74.4757 55.3861 74.5377 55.4079 74.6138 55.4088C74.6899 55.4096 74.7519 55.4314 74.7516 55.4572C74.7513 55.4829 74.8549 55.5052 74.9817 55.5066C75.1085 55.5081 75.212 55.5303 75.2117 55.5561C75.2114 55.5852 75.4726 55.6059 75.903 55.6108C76.3335 55.6157 76.595 55.601 76.5953 55.5719C76.5956 55.5462 76.6996 55.5263 76.8265 55.5278C76.9533 55.5292 77.0573 55.5093 77.0576 55.4836C77.0579 55.4579 77.1204 55.4375 77.1965 55.4384C77.2726 55.4393 77.3351 55.4189 77.3354 55.3932C77.3357 55.3674 77.3982 55.3471 77.4743 55.3479C77.5504 55.3488 77.6129 55.3285 77.6132 55.3027C77.6135 55.277 77.6552 55.2564 77.706 55.257C77.7567 55.2576 77.7984 55.237 77.7987 55.2112C77.799 55.1855 77.8408 55.1649 77.8915 55.1655C77.9422 55.1661 77.984 55.1455 77.9843 55.1197C77.9846 55.094 78.0263 55.0734 78.077 55.074C78.1278 55.0746 78.1695 55.054 78.1698 55.0282C78.1701 55.0025 78.2073 54.9819 78.2524 54.9824C78.2975 54.9829 78.3649 54.9415 78.402 54.8905C78.4392 54.8394 78.4963 54.7979 78.5291 54.7983C78.6016 54.7991 79.567 53.8493 79.5679 53.7763C79.5682 53.7477 79.6314 53.666 79.7083 53.5947C79.7852 53.5235 79.8485 53.4315 79.849 53.3903C79.8495 53.3491 79.8706 53.3157 79.896 53.316C79.9213 53.3163 79.9426 53.2744 79.9432 53.2229C79.9438 53.1715 79.965 53.1296 79.9903 53.1299C80.0157 53.1301 80.037 53.0883 80.0375 53.0368C80.0381 52.9853 80.0594 52.9434 80.0847 52.9437C80.1101 52.944 80.1316 52.881 80.1324 52.8038C80.1333 52.7266 80.1548 52.6636 80.1802 52.6639C80.2055 52.6642 80.227 52.6013 80.2279 52.524C80.2288 52.4468 80.2502 52.3839 80.2756 52.3842C80.301 52.3844 80.3224 52.3215 80.3233 52.2443C80.3242 52.167 80.3457 52.1041 80.371 52.1044C80.3974 52.1047 80.4188 51.9645 80.4209 51.7773C80.423 51.5901 80.4444 51.4499 80.4707 51.4502C80.4981 51.4505 80.5188 51.2791 80.5217 51.0295C80.5245 50.7798 80.5077 50.608 80.4803 50.6077C80.4547 50.6074 80.4357 50.4823 80.4374 50.3263C80.4392 50.1703 80.4202 50.0453 80.3945 50.045C80.3691 50.0447 80.3493 49.9602 80.3505 49.8572C80.3517 49.7542 80.3319 49.6698 80.3065 49.6695C80.2812 49.6692 80.2611 49.6057 80.262 49.5285C80.2629 49.4513 80.2429 49.3879 80.2175 49.3876C80.1921 49.3873 80.1719 49.3449 80.1724 49.2934C80.173 49.242 80.1528 49.1996 80.1274 49.1993C80.102 49.199 80.0817 49.1566 80.0823 49.1052C80.0829 49.0537 80.0626 49.0113 80.0373 49.011C80.0119 49.0107 79.9916 48.9684 79.9922 48.9169C79.9928 48.8654 79.9725 48.823 79.9472 48.8227C79.9218 48.8225 79.9015 48.7847 79.902 48.7389C79.9025 48.6931 79.8618 48.6248 79.8115 48.5871C79.7612 48.5494 79.7203 48.4896 79.7207 48.4541C79.7212 48.4187 79.6599 48.3299 79.5846 48.2569C79.5093 48.1839 79.448 48.1005 79.4483 48.0717C79.4491 48.0033 78.9651 47.5008 78.8978 47.5C78.8694 47.4997 78.7887 47.4356 78.7185 47.3575C78.6483 47.2795 78.5622 47.2153 78.5273 47.2149C78.4923 47.2145 78.4343 47.1717 78.3983 47.1198C78.3623 47.0679 78.296 47.025 78.2508 47.0245C78.2057 47.024 78.169 47.0025 78.1693 46.9767C78.1696 46.951 78.1283 46.9294 78.0776 46.9289C78.0269 46.9283 77.9856 46.9067 77.9859 46.881C77.9862 46.8553 77.9449 46.8337 77.8942 46.8331C77.8435 46.8326 77.8022 46.811 77.8025 46.7853C77.8028 46.7595 77.7407 46.7378 77.6646 46.7369C77.5886 46.736 77.5265 46.7142 77.5268 46.6885C77.5271 46.6628 77.4651 46.641 77.389 46.6401C77.3129 46.6392 77.2509 46.6175 77.2512 46.5917C77.2515 46.566 77.1687 46.544 77.0672 46.5428ZM29.5585 46.4662C29.457 46.465 29.3742 46.443 29.3745 46.4173C29.3748 46.3879 29.083 46.3671 28.591 46.3615C28.099 46.3559 27.8068 46.37 27.8064 46.3993C27.8061 46.4251 27.7229 46.4452 27.6214 46.444C27.52 46.4428 27.4367 46.4629 27.4364 46.4887C27.4361 46.5144 27.3529 46.5345 27.2514 46.5334C27.1499 46.5322 27.0667 46.5523 27.0664 46.5781C27.0661 46.6038 27.0243 46.6244 26.9736 46.6238C26.9229 46.6232 26.8811 46.6438 26.8808 46.6696C26.8805 46.6953 26.818 46.7157 26.7419 46.7148C26.6658 46.7139 26.6033 46.7343 26.6031 46.76C26.6028 46.7857 26.5656 46.8064 26.5205 46.8059C26.4753 46.8053 26.408 46.8467 26.3709 46.8978C26.3337 46.9488 26.2664 46.9902 26.2212 46.9897C26.1761 46.9892 26.1389 47.0098 26.1387 47.0355C26.1384 47.0613 26.1054 47.082 26.0653 47.0815C26.0253 47.0811 25.9118 47.164 25.8131 47.2659C25.7145 47.3677 25.6107 47.4508 25.5825 47.4505C25.5158 47.4497 25.2079 47.7551 25.2072 47.8228C25.2068 47.8514 25.1226 47.9548 25.02 48.0526C24.9175 48.1503 24.8331 48.2635 24.8327 48.3042C24.8322 48.3448 24.8111 48.3778 24.7857 48.3776C24.7603 48.3773 24.7392 48.4145 24.7386 48.4603C24.7381 48.5061 24.6958 48.5735 24.6447 48.61C24.5935 48.6465 24.5513 48.7139 24.5507 48.7597C24.5502 48.8055 24.529 48.8427 24.5037 48.8424C24.4783 48.8421 24.4571 48.884 24.4565 48.9355C24.4559 48.987 24.4347 49.0289 24.4093 49.0286C24.3839 49.0283 24.3627 49.0702 24.3621 49.1217C24.3615 49.1732 24.3403 49.215 24.3149 49.2148C24.2896 49.2145 24.2681 49.2774 24.2672 49.3546C24.2663 49.4319 24.2448 49.4948 24.2195 49.4945C24.1941 49.4942 24.1724 49.5782 24.1712 49.6812C24.1701 49.7842 24.1483 49.8682 24.123 49.8679C24.0966 49.8676 24.0753 50.0078 24.0731 50.195C24.071 50.3822 24.0496 50.5224 24.0233 50.5221C23.9964 50.5218 23.9754 50.6776 23.9729 50.896C23.9704 51.1145 23.9878 51.2707 24.0147 51.271C24.0411 51.2713 24.0593 51.4119 24.0571 51.5992C24.055 51.7864 24.0732 51.927 24.0995 51.9273C24.1249 51.9276 24.1447 52.0121 24.1435 52.1151C24.1423 52.218 24.1621 52.3025 24.1875 52.3028C24.2128 52.3031 24.2331 52.3455 24.2325 52.397C24.2319 52.4484 24.2522 52.4908 24.2776 52.4911C24.303 52.4914 24.323 52.5548 24.3221 52.632C24.3212 52.7093 24.3413 52.7727 24.3666 52.773C24.392 52.7733 24.4123 52.8156 24.4117 52.8671C24.4111 52.9186 24.4314 52.961 24.4567 52.9613C24.4821 52.9616 24.5024 53.0039 24.5018 53.0554C24.5012 53.1069 24.5215 53.1493 24.5468 53.1495C24.5722 53.1498 24.5926 53.1837 24.5921 53.2249C24.5916 53.2661 24.6528 53.3595 24.7281 53.4325C24.8034 53.5055 24.8647 53.5897 24.8644 53.6197C24.864 53.6497 24.9663 53.7779 25.0917 53.9048C25.2171 54.0316 25.3194 54.1683 25.3189 54.2086C25.3185 54.2489 25.3508 54.2822 25.3909 54.2827C25.4309 54.2831 25.5425 54.3687 25.6388 54.4728C25.7351 54.5769 25.8421 54.6623 25.8765 54.6627C25.911 54.6631 25.9686 54.7059 26.0045 54.7578C26.0405 54.8097 26.1069 54.8526 26.152 54.8531C26.1971 54.8537 26.2338 54.8751 26.2335 54.9009C26.2333 54.9266 26.2745 54.9482 26.3253 54.9488C26.376 54.9493 26.4173 54.9709 26.417 54.9966C26.4167 55.0224 26.4579 55.0439 26.5087 55.0445C26.5594 55.0451 26.6007 55.0666 26.6004 55.0923C26.6001 55.1181 26.6413 55.1396 26.6921 55.1402C26.7428 55.1408 26.7841 55.1623 26.7838 55.1881C26.7835 55.2138 26.8248 55.2353 26.8755 55.2359C26.9262 55.2365 26.9675 55.258 26.9672 55.2838C26.9669 55.3095 27.0497 55.3315 27.1511 55.3327C27.2526 55.3339 27.3354 55.3559 27.3351 55.3816C27.3348 55.4074 27.4176 55.4294 27.519 55.4305C27.6205 55.4317 27.7033 55.4537 27.703 55.4795C27.7027 55.5087 27.9792 55.5294 28.4404 55.5347C28.9016 55.54 29.1785 55.5256 29.1788 55.4964C29.1791 55.4706 29.2831 55.4508 29.41 55.4522C29.5368 55.4537 29.6408 55.4338 29.6411 55.4081C29.6414 55.3823 29.7039 55.362 29.78 55.3629C29.8561 55.3637 29.9186 55.3434 29.9189 55.3176C29.9192 55.2919 29.9817 55.2715 30.0578 55.2724C30.1339 55.2733 30.1964 55.2529 30.1967 55.2272C30.1969 55.2015 30.2387 55.1809 30.2894 55.1814C30.3402 55.182 30.3819 55.1614 30.3822 55.1357C30.3825 55.11 30.4404 55.0896 30.5109 55.0904C30.5862 55.0912 30.667 55.0535 30.7066 54.999C30.7438 54.9479 30.8065 54.9065 30.8461 54.907C30.8856 54.9074 30.9483 54.866 30.9855 54.8149C31.0227 54.7639 31.0809 54.7224 31.115 54.7228C31.1491 54.7232 31.2793 54.6194 31.4043 54.4921C31.5293 54.3648 31.664 54.261 31.7037 54.2614C31.7435 54.2619 31.7763 54.2293 31.7768 54.189C31.7772 54.1487 31.8825 54.0144 32.0108 53.8905C32.139 53.7665 32.2443 53.6369 32.2447 53.6023C32.2451 53.5676 32.2873 53.5095 32.3384 53.4729C32.3896 53.4364 32.4319 53.3691 32.4324 53.3232C32.4329 53.2775 32.4541 53.2402 32.4795 53.2405C32.5048 53.2408 32.5261 53.1989 32.5266 53.1474C32.5272 53.0959 32.5485 53.054 32.5738 53.0543C32.5992 53.0546 32.6204 53.0127 32.621 52.9612C32.6216 52.9098 32.6428 52.8679 32.6682 52.8682C32.6936 52.8685 32.7148 52.8266 32.7154 52.7751C32.716 52.7236 32.7372 52.6817 32.7626 52.682C32.7879 52.6823 32.8094 52.6193 32.8103 52.5421C32.8112 52.4649 32.8326 52.4019 32.858 52.4022C32.8834 52.4025 32.9051 52.3185 32.9063 52.2155C32.9074 52.1126 32.9292 52.0286 32.9545 52.0289C32.9809 52.0292 33.0022 51.889 33.0044 51.7017C33.0065 51.5145 33.0279 51.3743 33.0542 51.3746C33.0811 51.3749 33.1021 51.2192 33.1046 51.0007C33.1071 50.7823 33.0896 50.6261 33.0628 50.6258C33.0364 50.6255 33.0182 50.4848 33.0204 50.2976C33.0225 50.1104 33.0043 49.9697 32.978 49.9694C32.9526 49.9691 32.9328 49.8847 32.934 49.7817C32.9352 49.6787 32.9154 49.5942 32.89 49.5939C32.8646 49.5936 32.8444 49.5513 32.845 49.4998C32.8455 49.4483 32.8253 49.4059 32.7999 49.4057C32.7745 49.4054 32.7545 49.3419 32.7554 49.2647C32.7563 49.1875 32.7362 49.1241 32.7109 49.1238C32.6855 49.1235 32.6652 49.0811 32.6658 49.0296C32.6664 48.9781 32.6461 48.9358 32.6208 48.9355C32.5954 48.9352 32.5751 48.8928 32.5757 48.8414C32.5763 48.7899 32.556 48.7475 32.5306 48.7472C32.5053 48.7469 32.485 48.7092 32.4855 48.6634C32.486 48.6176 32.4453 48.5493 32.395 48.5116C32.3446 48.4739 32.3038 48.4145 32.3042 48.3795C32.3046 48.3446 32.2228 48.2341 32.1225 48.134C32.0222 48.0339 31.9403 47.9283 31.9407 47.8994C31.9414 47.8315 31.7331 47.6146 31.6663 47.6138C31.6381 47.6135 31.5152 47.5068 31.3931 47.3767C31.271 47.2465 31.1387 47.1397 31.099 47.1392C31.0593 47.1388 31.0271 47.1173 31.0274 47.0916C31.0277 47.0658 30.9909 47.0444 30.9458 47.0438C30.9007 47.0433 30.8343 47.0004 30.7984 46.9485C30.7624 46.8966 30.696 46.8537 30.6509 46.8532C30.6058 46.8527 30.5691 46.8312 30.5694 46.8055C30.5697 46.7797 30.5076 46.758 30.4315 46.7571C30.3554 46.7562 30.2934 46.7344 30.2937 46.7087C30.294 46.6829 30.2527 46.6614 30.202 46.6608C30.1513 46.6602 30.11 46.6387 30.1103 46.613C30.1106 46.5872 30.0278 46.5652 29.9263 46.564C29.8249 46.5629 29.7421 46.5409 29.7424 46.5151C29.7427 46.4894 29.6599 46.4674 29.5585 46.4662ZM33.8098 50.9625C33.7776 53.7844 31.4639 56.0458 28.642 56.0135C25.8202 55.9813 23.5587 53.6676 23.591 50.8457C23.6232 48.0239 25.9369 45.7625 28.7588 45.7947C31.5806 45.827 33.8421 48.1407 33.8098 50.9625ZM76.1462 56.1008C78.9681 56.1331 81.2818 53.8716 81.314 51.0498C81.3463 48.2279 79.0849 45.9142 76.263 45.882C73.4411 45.8497 71.1274 48.1111 71.0952 50.933C71.0629 53.7549 73.3244 56.0686 76.1462 56.1008Z" fill="#FFCC00"/>
<circle cx="28.4578" cy="50.6908" r="5.35484" transform="rotate(0.654807 28.4578 50.6908)" fill="#FFCC00"/>
<circle cx="76.2072" cy="50.7902" r="4.9086" transform="rotate(0.654806 76.2072 50.7902)" fill="#FFCC00"/>
<ellipse cx="56.1949" cy="38.4517" rx="8.72563" ry="8.72563" transform="rotate(40.0307 56.1949 38.4517)" fill="#FFCC00" stroke="#FFCC00" stroke-width="1.78495"/>
<rect width="2.67937" height="9.38358" transform="matrix(0.999965 -0.00837699 0.00436767 0.99999 54.7744 48.9714)" fill="#FFCC00"/>
<defs>
<clipPath id="clip0">
<rect width="30.3441" height="31.2378" fill="white" transform="translate(8 11.5972)"/>
</clipPath>
</defs>
</svg>
