<svg width="100" height="70" viewBox="0 0 100 70" fill="none" xmlns="http://www.w3.org/2000/svg">
<path d="M38.7468 20.4563C38.4056 19.7909 38.8888 19 39.6366 19H60.3634C61.1112 19 61.5944 19.7909 61.2532 20.4563L57.6634 27.4563C57.4923 27.7901 57.1487 28 56.7736 28H43.2264C42.8513 28 42.5077 27.7901 42.3366 27.4563L38.7468 20.4563Z" fill="#FFCC00"/>
<path d="M61 53L39 53L42.234 45.5996C42.3932 45.2354 42.7529 45 43.1504 45L56.8391 45C57.2361 45 57.5955 45.2349 57.755 45.5985L61 53Z" fill="#FFCC00"/>
<path d="M31 57C31 55.8954 31.8954 55 33 55H68C69.1046 55 70 55.8954 70 57H31Z" fill="#FFCC00"/>
<path d="M57 16C57 16.5523 56.5523 17 56 17L44 17C43.4477 17 43 16.5523 43 16L43 13L57 13L57 16Z" fill="#FFCC00"/>
<path d="M34.2601 35H65.585L68 36.5L65.585 38H34.2601L32 36.5L34.2601 35Z" fill="#FFCC00"/>
<path fill-rule="evenodd" clip-rule="evenodd" d="M28.8267 36.4937L42.7458 27.4281L40.4576 21.3264L17.9338 31.5308C15.9409 32.4337 14.8255 34.4519 14.959 36.4937C14.8255 38.5356 15.9409 40.5537 17.9338 41.4566L40.4576 51.6611L42.7458 45.5594L28.8267 36.4937ZM20.5015 38C21.3299 38 22.0015 37.3285 22.0015 36.5C22.0015 35.6716 21.3299 35 20.5015 35C19.673 35 19.0015 35.6716 19.0015 36.5C19.0015 37.3285 19.673 38 20.5015 38Z" fill="#FFCC00"/>
<path fill-rule="evenodd" clip-rule="evenodd" d="M71.0735 36.4258L57.2368 27.2922L59.525 21.1906L81.7582 31.3849C83.767 32.3059 84.8755 34.3624 84.7026 36.4258C84.8755 38.4891 83.767 40.5456 81.7582 41.4667L59.525 51.661L57.2368 45.5593L71.0735 36.4258ZM79.127 38C79.9554 38 80.627 37.3284 80.627 36.5C80.627 35.6715 79.9554 35 79.127 35C78.2985 35 77.627 35.6715 77.627 36.5C77.627 37.3284 78.2985 38 79.127 38Z" fill="#FFCC00"/>
</svg>
