<svg width="100" height="70" viewBox="0 0 100 70" fill="none" xmlns="http://www.w3.org/2000/svg">
<path d="M18.125 30.875C17.1304 30.875 16.1766 31.2701 15.4734 31.9733C14.7701 32.6766 14.375 33.6304 14.375 34.625C14.375 35.6196 14.7701 36.5734 15.4734 37.2767C16.1766 37.9799 17.1304 38.375 18.125 38.375L43.125 38.375L43.125 30.875L18.125 30.875ZM19.375 34.625C19.375 34.8722 19.3017 35.1139 19.1643 35.3195C19.027 35.525 18.8318 35.6852 18.6034 35.7798C18.3749 35.8745 18.1236 35.8992 17.8811 35.851C17.6387 35.8027 17.4159 35.6837 17.2411 35.5089C17.0663 35.3341 16.9473 35.1113 16.899 34.8689C16.8508 34.6264 16.8755 34.3751 16.9702 34.1466C17.0648 33.9182 17.225 33.723 17.4305 33.5857C17.6361 33.4483 17.8778 33.375 18.125 33.375C18.4565 33.375 18.7745 33.5067 19.0089 33.7411C19.2433 33.9755 19.375 34.2935 19.375 34.625Z" fill="#FFCC00"/>
<path d="M65.3103 35.9C65.211 35.5141 65.1586 35.0737 65.1586 34.625C65.1586 34.1763 65.211 33.7359 65.3103 33.35L65.625 32.125L45.625 32.125L45.625 37.125L65.625 37.125L65.3103 35.9Z" fill="#FFCC00"/>
<path d="M78.125 54.625L78.125 14.625L73.297 14.625L71.2216 29.4987C71.2042 29.6402 71.1556 29.7766 71.0789 29.8987L68.125 34.625L71.0789 39.3513C71.1556 39.4734 71.2042 39.6098 71.2216 39.7513L73.297 54.625L78.125 54.625Z" fill="#FFCC00"/>
<path d="M85.625 14.625L85.625 54.625L80.625 54.625L80.625 14.625L85.625 14.625Z" fill="#FFCC00"/>
</svg>
