<svg width="100" height="70" viewBox="0 0 100 70" fill="none" xmlns="http://www.w3.org/2000/svg">
<path fill-rule="evenodd" clip-rule="evenodd" d="M45.4943 13C43.9096 13 42.625 14.2846 42.625 15.8693V35.2994H53.269C54.0705 35.2994 54.7953 35.628 55.3159 36.1579H70.125V37.3158H56.0094C56.0932 37.5852 56.1384 37.8717 56.1384 38.1687V39.6316H70.1249V40.7895H56.1384V43.1053H62.9243V44.2632H56.1384V57H74.1307C75.7154 57 77 55.7154 77 54.1307V13H45.4943ZM58.6667 21.1052H49.5V22.2631H58.6667V21.1052ZM49.5 32.6842H70.125V33.8421H49.5V32.6842ZM70.125 29.2106H49.5V30.3685H70.125V29.2106Z" fill="#FFCC00"/>
<path fill-rule="evenodd" clip-rule="evenodd" d="M22 39.2286C22 38.1722 22.8564 37.3157 23.9129 37.3157H52.1705C53.2269 37.3157 54.0833 38.1722 54.0833 39.2286V56.9999H23.9129C22.8564 56.9999 22 56.1435 22 55.0871V39.2286ZM36.896 43.1053H49.5002V44.2632H36.896V43.1053ZM49.5002 46.579H36.896V47.7369H49.5002V46.579ZM36.896 50.0526H43.771V51.2105H36.896V50.0526ZM30.5937 46.9445C29.4882 46.9445 28.5885 46.0833 28.5885 45.0249C28.5885 43.9665 29.4882 43.1052 30.5937 43.1052C31.6993 43.1052 32.5989 43.9665 32.5989 45.0249C32.5989 46.0833 31.6993 46.9445 30.5937 46.9445ZM34.6041 51.2105H34.1585H26.5833V50.7839C26.5833 49.1377 27.9825 47.7977 29.7025 47.7977H31.4849C33.2045 47.7977 34.6041 49.1377 34.6041 50.7839V51.2105Z" fill="#FFCC00"/>
</svg>
