<svg width="100" height="70" viewBox="0 0 100 70" fill="none" xmlns="http://www.w3.org/2000/svg">
<path d="M58 28C59.1046 28 60 28.8954 60 30L60 34L10 34L10 33.0261C10 32.3733 10.3187 31.7615 10.8536 31.3873L15.1799 28.3611C15.516 28.1261 15.9162 28 16.3263 28L21.6275 28C21.9627 28 22.2906 28.0838 22.5903 28.2338C23.6764 28.7771 26.4968 30.0778 28.5805 30.0625C30.6083 30.0476 33.3411 28.7761 34.4096 28.2372C34.7108 28.0852 35.0413 28 35.3788 28L38.9904 28C39.338 28 39.6791 28.091 39.9876 28.2514C41.0471 28.8023 43.695 30.0669 45.6691 30.0625C47.6272 30.0581 50.2501 28.8021 51.3045 28.2525C51.6133 28.0915 51.9554 28 52.3037 28L58 28Z" fill="#FFCC00"/>
<path d="M58 42C59.1046 42 60 41.1046 60 40L60 36L10 36L10 36.9739C10 37.6267 10.3187 38.2385 10.8536 38.6127L15.1799 41.6389C15.516 41.8739 15.9162 42 16.3263 42L21.6275 42C21.9627 42 22.2906 41.9162 22.5903 41.7662C23.6764 41.2229 26.4968 39.9222 28.5805 39.9375C30.6083 39.9524 33.3411 41.2239 34.4096 41.7628C34.7108 41.9148 35.0413 42 35.3788 42L38.9904 42C39.338 42 39.6791 41.909 39.9876 41.7486C41.0471 41.1977 43.695 39.9331 45.6691 39.9375C47.6272 39.9419 50.2501 41.1979 51.3045 41.7475C51.6133 41.9085 51.9554 42 52.3037 42L58 42Z" fill="#FFCC00"/>
<path fill-rule="evenodd" clip-rule="evenodd" d="M79 18C84.5229 18 89 22.4772 89 28L89 41.0932C89 46.616 84.5229 51.0932 79 51.0932H67.5212C63.0093 51.0932 59.1954 48.1051 57.9502 44H60C61.1045 44 62 43.1046 62 42V28C62 26.8954 61.1045 26 60 26H57.7212C58.6477 21.4355 62.6832 18 67.5212 18L79 18ZM79.0002 26C80.1047 26 81.0002 26.8954 81.0002 28V41C81.0002 42.1046 80.1047 43 79.0002 43C77.8956 43 77.0002 42.1046 77.0002 41V28C77.0002 26.8954 77.8956 26 79.0002 26Z" fill="#FFCC00"/>
</svg>
