<svg width="100" height="70" viewBox="0 0 100 70" fill="none" xmlns="http://www.w3.org/2000/svg">
<path fill-rule="evenodd" clip-rule="evenodd" d="M44.0626 13.1416C44.0626 13.1 44.1078 13.0542 44.163 13.0397C44.2182 13.0252 50.5041 13.0104 58.1317 13.0067L72 13V34.464V48H68V44H64V48H60V44H56V48H52V44H48V48H44V44H40V48H36V44H32V48H28V42.8179C28 29.6743 28.0003 29.6359 28.1147 29.6359C28.2177 29.6359 28.2295 29.5975 28.2295 29.2617C28.2295 28.9259 28.2412 28.8876 28.3442 28.8876C28.4363 28.8876 28.4589 28.8492 28.4589 28.6933C28.4589 28.3806 28.5246 28.1392 28.6095 28.1392C28.6529 28.1392 28.6884 28.085 28.6884 28.0187C28.6884 27.9481 28.7342 27.8862 28.7991 27.8691C28.8748 27.8493 28.9216 27.7694 28.9475 27.6155C28.976 27.4459 29.0122 27.3909 29.095 27.3909C29.1664 27.3909 29.2047 27.3508 29.2047 27.2758C29.2047 27.199 29.243 27.1606 29.3194 27.1606C29.3959 27.1606 29.4342 27.1222 29.4342 27.0455C29.4342 26.9688 29.4724 26.9304 29.5489 26.9304C29.6254 26.9304 29.6636 26.892 29.6636 26.8153C29.6636 26.7399 29.7019 26.7001 29.7743 26.7001C29.8455 26.7001 29.8917 26.6539 29.9034 26.5706C29.9152 26.4874 29.9679 26.4345 30.0508 26.4227C30.1338 26.4109 30.1799 26.3646 30.1799 26.2932C30.1799 26.2205 30.2196 26.1821 30.2947 26.1821C30.3711 26.1821 30.4094 26.1437 30.4094 26.0669C30.4094 25.9902 30.4477 25.9518 30.5241 25.9518C30.5992 25.9518 30.6389 25.9134 30.6389 25.8407C30.6389 25.7693 30.685 25.723 30.7679 25.7112C30.8509 25.6993 30.9035 25.6465 30.9154 25.5633C30.9271 25.48 30.9732 25.4337 31.0444 25.4337C31.1169 25.4337 31.1551 25.394 31.1551 25.3186C31.1551 25.2419 31.1934 25.2035 31.2699 25.2035C31.3464 25.2035 31.3846 25.1651 31.3846 25.0884C31.3846 25.0116 31.4229 24.9732 31.4993 24.9732C31.5758 24.9732 31.6141 24.9348 31.6141 24.8581C31.6141 24.7814 31.6523 24.743 31.7288 24.743C31.8039 24.743 31.8435 24.7046 31.8435 24.6319C31.8435 24.5604 31.8897 24.5142 31.9726 24.5024C32.0556 24.4905 32.1082 24.4377 32.1201 24.3544C32.1318 24.2712 32.1779 24.2249 32.2491 24.2249C32.3216 24.2249 32.3598 24.1851 32.3598 24.1098C32.3598 24.033 32.3981 23.9946 32.4746 23.9946C32.551 23.9946 32.5893 23.9562 32.5893 23.8795C32.5893 23.8028 32.6276 23.7644 32.704 23.7644C32.7791 23.7644 32.8188 23.726 32.8188 23.6533C32.8188 23.5819 32.8649 23.5356 32.9478 23.5238C33.0308 23.5119 33.0835 23.4591 33.0953 23.3758C33.107 23.2926 33.1532 23.2463 33.2244 23.2463C33.2968 23.2463 33.3351 23.2065 33.3351 23.1312C33.3351 23.0545 33.3733 23.0161 33.4498 23.0161C33.5263 23.0161 33.5645 22.9777 33.5645 22.9009C33.5645 22.8225 33.6028 22.7858 33.6847 22.7858C33.7545 22.7858 33.8167 22.7399 33.8334 22.676C33.8491 22.6156 33.9112 22.5533 33.9714 22.5375C34.0351 22.5208 34.0808 22.4584 34.0808 22.3883C34.0808 22.3061 34.1174 22.2677 34.1956 22.2677C34.272 22.2677 34.3103 22.2293 34.3103 22.1526C34.3103 22.0759 34.3486 22.0375 34.425 22.0375C34.5015 22.0375 34.5398 21.9991 34.5398 21.9224C34.5398 21.8456 34.578 21.8072 34.6545 21.8072C34.731 21.8072 34.7692 21.7688 34.7692 21.6921C34.7692 21.6136 34.8075 21.577 34.8894 21.577C34.9592 21.577 35.0214 21.5311 35.0381 21.4671C35.0538 21.4068 35.1159 21.3444 35.1761 21.3286C35.2398 21.312 35.2855 21.2496 35.2855 21.1794C35.2855 21.0973 35.3221 21.0589 35.4003 21.0589C35.4767 21.0589 35.515 21.0205 35.515 20.9438C35.515 20.867 35.5533 20.8286 35.6297 20.8286C35.7062 20.8286 35.7445 20.7903 35.7445 20.7135C35.7445 20.6351 35.7827 20.5984 35.8646 20.5984C35.9345 20.5984 35.9966 20.5525 36.0133 20.4886C36.029 20.4282 36.0911 20.3658 36.1513 20.3501C36.215 20.3334 36.2608 20.271 36.2608 20.2009C36.2608 20.1187 36.2973 20.0803 36.3755 20.0803C36.452 20.0803 36.4902 20.0419 36.4902 19.9652C36.4902 19.8867 36.5285 19.8501 36.6103 19.8501C36.6822 19.8501 36.7425 19.8038 36.7604 19.7349C36.7771 19.6712 36.8387 19.6198 36.8985 19.6198C36.9683 19.6198 37.0065 19.5791 37.0065 19.5047C37.0065 19.428 37.0448 19.3896 37.1213 19.3896C37.2054 19.3896 37.236 19.3512 37.236 19.2456C37.236 19.1401 37.2666 19.1017 37.3507 19.1017C37.4272 19.1017 37.4655 19.0633 37.4655 18.9866C37.4655 18.9022 37.5037 18.8715 37.6089 18.8715C37.714 18.8715 37.7523 18.8408 37.7523 18.7564C37.7523 18.6796 37.7905 18.6412 37.867 18.6412C37.9435 18.6412 37.9817 18.6028 37.9817 18.5261C37.9817 18.4494 38.02 18.411 38.0965 18.411C38.1729 18.411 38.2112 18.3726 38.2112 18.2959C38.2112 18.2191 38.2495 18.1807 38.3259 18.1807C38.4101 18.1807 38.4407 18.1423 38.4407 18.0368C38.4407 17.9217 38.4694 17.8929 38.5841 17.8929C38.6864 17.8929 38.7275 17.8618 38.7275 17.7842C38.7275 17.7055 38.783 17.665 38.9283 17.6377C39.0551 17.6138 39.1291 17.567 39.1291 17.5107C39.1291 17.4617 39.1783 17.4087 39.2385 17.3929C39.2987 17.3771 39.3608 17.3148 39.3766 17.2544C39.3932 17.1905 39.4554 17.1446 39.5252 17.1446C39.6071 17.1446 39.6454 17.1079 39.6454 17.0295C39.6454 16.9527 39.6836 16.9143 39.7601 16.9143C39.8383 16.9143 39.8748 16.8759 39.8748 16.7938C39.8748 16.7217 39.9209 16.6612 39.9896 16.6432C40.0527 16.6266 40.1043 16.5748 40.1043 16.5281C40.1043 16.4813 40.1535 16.4301 40.2138 16.4143C40.2739 16.3986 40.3361 16.3362 40.3518 16.2758C40.3684 16.2119 40.4306 16.166 40.5005 16.166C40.5823 16.166 40.6206 16.1293 40.6206 16.0509C40.6206 15.9741 40.6589 15.9357 40.7353 15.9357C40.8118 15.9357 40.8501 15.8973 40.8501 15.8206C40.8501 15.7439 40.8883 15.7055 40.9648 15.7055C41.043 15.7055 41.0795 15.6671 41.0795 15.585C41.0795 15.5148 41.1253 15.4524 41.189 15.4357C41.2492 15.42 41.3113 15.3576 41.327 15.2972C41.3436 15.2333 41.4058 15.1874 41.4757 15.1874C41.5576 15.1874 41.5958 15.1507 41.5958 15.0723C41.5958 14.9956 41.6341 14.9572 41.7106 14.9572C41.787 14.9572 41.8253 14.9188 41.8253 14.842C41.8253 14.7667 41.8636 14.7269 41.936 14.7269C42.0072 14.7269 42.0533 14.6806 42.0651 14.5974C42.0769 14.5142 42.1296 14.4613 42.2125 14.4495C42.2955 14.4377 42.3416 14.3914 42.3416 14.3199C42.3416 14.2472 42.3812 14.2088 42.4563 14.2088C42.5328 14.2088 42.5711 14.1704 42.5711 14.0937C42.5711 14.017 42.6093 13.9786 42.6858 13.9786C42.7623 13.9786 42.8005 13.9402 42.8005 13.8635C42.8005 13.779 42.8388 13.7483 42.9439 13.7483C43.0491 13.7483 43.0874 13.7176 43.0874 13.6332C43.0874 13.5394 43.1256 13.5181 43.2935 13.5181C43.4498 13.5181 43.5068 13.4908 43.529 13.4056C43.5502 13.3239 43.6274 13.2826 43.8105 13.2551C43.9612 13.2324 44.0626 13.1868 44.0626 13.1416ZM28 52H32V48H36V52H40V48H44V52H48V48H52V52H56V48H60V52H64V48H68V52H72V55.928L71.8207 55.964C71.7221 55.9838 61.8221 56 49.8207 56H28V52ZM68.3286 32.0535V24.2537V16.4538H56.7692C46.5733 16.4538 45.2099 16.4639 45.2099 16.5395C45.2099 16.5949 45.1289 16.6381 44.9804 16.662C44.8075 16.6897 44.751 16.7253 44.751 16.8066C44.751 16.8759 44.7101 16.9143 44.6362 16.9143C44.5598 16.9143 44.5215 16.9527 44.5215 17.0295C44.5215 17.1048 44.4832 17.1446 44.4108 17.1446C44.3396 17.1446 44.2935 17.1909 44.2817 17.2741C44.2699 17.3573 44.2172 17.4102 44.1343 17.422C44.0513 17.4338 44.0052 17.4801 44.0052 17.5516C44.0052 17.6243 43.9656 17.6627 43.8905 17.6627C43.814 17.6627 43.7758 17.701 43.7758 17.7778C43.7758 17.8545 43.7375 17.8929 43.661 17.8929C43.5845 17.8929 43.5463 17.9313 43.5463 18.008C43.5463 18.0848 43.508 18.1232 43.4316 18.1232C43.3534 18.1232 43.3168 18.1616 43.3168 18.2437C43.3168 18.3138 43.2711 18.3762 43.2074 18.3929C43.1472 18.4087 43.0851 18.471 43.0693 18.5314C43.0527 18.5954 42.9905 18.6412 42.9206 18.6412C42.8388 18.6412 42.8005 18.6779 42.8005 18.7564C42.8005 18.8331 42.7623 18.8715 42.6858 18.8715C42.6093 18.8715 42.5711 18.9099 42.5711 18.9866C42.5711 19.0633 42.5328 19.1017 42.4563 19.1017C42.3799 19.1017 42.3416 19.1401 42.3416 19.2169C42.3416 19.2922 42.3033 19.332 42.2309 19.332C42.1597 19.332 42.1136 19.3783 42.1018 19.4615C42.09 19.5448 42.0373 19.5976 41.9544 19.6095C41.8714 19.6213 41.8253 19.6675 41.8253 19.739C41.8253 19.8117 41.7857 19.8501 41.7106 19.8501C41.6341 19.8501 41.5958 19.8885 41.5958 19.9652C41.5958 20.0419 41.5576 20.0803 41.4811 20.0803C41.406 20.0803 41.3664 20.1187 41.3664 20.1914C41.3664 20.2629 41.3202 20.3091 41.2373 20.3209C41.1543 20.3328 41.1017 20.3856 41.0899 20.4689C41.0781 20.5521 41.032 20.5984 40.9608 20.5984C40.8883 20.5984 40.8501 20.6382 40.8501 20.7135C40.8501 20.7903 40.8118 20.8286 40.7353 20.8286C40.6589 20.8286 40.6206 20.867 40.6206 20.9438C40.6206 21.0205 40.5823 21.0589 40.5059 21.0589C40.4294 21.0589 40.3911 21.0973 40.3911 21.174C40.3911 21.2494 40.3529 21.2892 40.2804 21.2892C40.2092 21.2892 40.1631 21.3354 40.1513 21.4187C40.1395 21.5019 40.0869 21.5548 40.0039 21.5666C39.921 21.5784 39.8748 21.6247 39.8748 21.6961C39.8748 21.7688 39.8352 21.8072 39.7601 21.8072C39.6836 21.8072 39.6454 21.8456 39.6454 21.9224C39.6454 21.9991 39.6071 22.0375 39.5306 22.0375C39.4542 22.0375 39.4159 22.0759 39.4159 22.1526C39.4159 22.2293 39.3776 22.2677 39.3012 22.2677C39.2261 22.2677 39.1864 22.3061 39.1864 22.3788C39.1864 22.4503 39.1403 22.4966 39.0574 22.5084C38.9744 22.5202 38.9218 22.5731 38.9099 22.6563C38.8982 22.7395 38.8521 22.7858 38.7809 22.7858C38.7084 22.7858 38.6701 22.8256 38.6701 22.9009C38.6701 22.9777 38.6319 23.0161 38.5554 23.0161C38.4789 23.0161 38.4407 23.0545 38.4407 23.1312C38.4407 23.2097 38.4024 23.2463 38.3206 23.2463C38.2507 23.2463 38.1885 23.2922 38.1719 23.3562C38.1561 23.4165 38.094 23.4789 38.0338 23.4946C37.9701 23.5113 37.9244 23.5737 37.9244 23.6439C37.9244 23.726 37.8878 23.7644 37.8096 23.7644C37.7332 23.7644 37.6949 23.8028 37.6949 23.8795C37.6949 23.9562 37.6567 23.9946 37.5802 23.9946C37.5037 23.9946 37.4655 24.033 37.4655 24.1098C37.4655 24.1865 37.4272 24.2249 37.3507 24.2249C37.2756 24.2249 37.236 24.2633 37.236 24.336C37.236 24.4074 37.1899 24.4537 37.1069 24.4655C37.024 24.4774 36.9713 24.5302 36.9595 24.6135C36.9477 24.6967 36.9016 24.743 36.8304 24.743C36.7579 24.743 36.7197 24.7827 36.7197 24.8581C36.7197 24.9348 36.6814 24.9732 36.605 24.9732C36.5285 24.9732 36.4902 25.0116 36.4902 25.0884C36.4902 25.1651 36.452 25.2035 36.3755 25.2035C36.299 25.2035 36.2608 25.2419 36.2608 25.3186C36.2608 25.3971 36.2225 25.4337 36.1406 25.4337C36.0708 25.4337 36.0086 25.4796 35.9919 25.5436C35.9762 25.604 35.9141 25.6663 35.8539 25.6821C35.7902 25.6988 35.7445 25.7612 35.7445 25.8313C35.7445 25.9134 35.7079 25.9518 35.6297 25.9518C35.5533 25.9518 35.515 25.9902 35.515 26.0669C35.515 26.1454 35.4767 26.1821 35.3949 26.1821C35.325 26.1821 35.2628 26.2279 35.2462 26.2919C35.2305 26.3523 35.1683 26.4146 35.1082 26.4304C35.0479 26.4462 34.9987 26.4973 34.9987 26.5441C34.9987 26.5909 34.9471 26.6427 34.884 26.6593C34.8153 26.6773 34.7692 26.7378 34.7692 26.8099C34.7692 26.892 34.7327 26.9304 34.6545 26.9304C34.578 26.9304 34.5398 26.9688 34.5398 27.0455C34.5398 27.1222 34.5015 27.1606 34.425 27.1606C34.3486 27.1606 34.3103 27.199 34.3103 27.2758C34.3103 27.3542 34.272 27.3909 34.1902 27.3909C34.1203 27.3909 34.0581 27.4368 34.0415 27.5007C34.0258 27.5611 33.9636 27.6235 33.9035 27.6392C33.8432 27.655 33.794 27.7092 33.794 27.7596C33.794 27.813 33.746 27.8514 33.6793 27.8514C33.5951 27.8514 33.5645 27.8898 33.5645 27.9953C33.5645 28.1104 33.5359 28.1392 33.4211 28.1392C33.316 28.1392 33.2777 28.1699 33.2777 28.2544C33.2777 28.3311 33.2394 28.3695 33.163 28.3695C33.0865 28.3695 33.0482 28.4079 33.0482 28.4846C33.0482 28.5613 33.01 28.5997 32.9335 28.5997C32.857 28.5997 32.8188 28.6381 32.8188 28.7149C32.8188 28.7916 32.7805 28.83 32.704 28.83C32.6199 28.83 32.5893 28.8684 32.5893 28.9739C32.5893 29.1034 32.5664 29.1178 32.3598 29.1178C32.1652 29.1178 32.1304 29.1361 32.1304 29.2383C32.1304 29.3106 32.0843 29.3709 32.0152 29.389C31.9341 29.4103 31.8896 29.4852 31.8645 29.6427C31.8378 29.8099 31.8019 29.8661 31.7215 29.8661C31.6242 29.8661 31.6141 29.9168 31.6141 30.4058C31.6141 31.1041 31.6542 31.3052 31.7934 31.3052C31.861 31.3052 31.9009 31.346 31.9009 31.4153C31.9009 31.4989 31.9562 31.5347 32.1304 31.5643C32.3045 31.5938 32.3598 31.6297 32.3598 31.7132C32.3598 31.8027 32.4015 31.8233 32.5826 31.8233C32.7572 31.8233 32.8119 31.8482 32.8354 31.9384C32.8653 32.0533 32.9137 32.0535 50.597 32.0535H68.3286ZM67.1239 38.3855C66.9327 38.3855 66.8944 38.3664 66.8944 38.2704C66.8944 38.1568 66.8561 38.1553 64.0834 38.1553C61.3108 38.1553 61.2725 38.1568 61.2725 38.2704C61.2725 38.3471 61.2342 38.3855 61.1578 38.3855C61.0813 38.3855 61.043 38.4239 61.043 38.5007C61.043 38.5774 61.0048 38.6158 60.9283 38.6158C60.8441 38.6158 60.8136 38.6542 60.8136 38.7597C60.8136 38.8652 60.783 38.9036 60.6988 38.9036C60.6032 38.9036 60.5841 38.942 60.5841 39.1339C60.5841 39.3257 60.6032 39.3641 60.6988 39.3641C60.7966 39.3641 60.8136 39.4025 60.8136 39.6232C60.8136 39.8438 60.8305 39.8822 60.9283 39.8822C61.0048 39.8822 61.043 39.9206 61.043 39.9973C61.043 40.0933 61.0813 40.1124 61.2725 40.1124C61.4637 40.1124 61.502 40.1316 61.502 40.2276C61.502 40.3411 61.5402 40.3427 64.1982 40.3427C66.7948 40.3427 66.8944 40.3387 66.8944 40.2349C66.8944 40.1542 66.9504 40.1181 67.1174 40.0914C67.3156 40.0596 67.3445 40.0338 67.377 39.8601C67.4008 39.7328 67.453 39.6542 67.5269 39.6349C67.6205 39.6103 67.6402 39.5556 67.6402 39.3192C67.6402 38.8916 67.5853 38.6875 67.4619 38.6551C67.399 38.6385 67.3533 38.5759 67.3533 38.5061C67.3533 38.4038 67.3185 38.3855 67.1239 38.3855Z" fill="#FFCC00"/>
</svg>
