<svg width="136" height="68" viewBox="0 0 136 68" fill="none" xmlns="http://www.w3.org/2000/svg">
<path d="M25.7704 56.6665H2.86344C1.28058 56.6665 0 57.9338 0 59.4999C0 61.066 1.28058 62.3333 2.86344 62.3333H25.7704C27.353 62.3333 28.6338 61.066 28.6338 59.4999C28.6338 57.9338 27.3533 56.6665 25.7704 56.6665Z" fill="#FFCC00"/>
<path d="M28.6338 39.6665H2.86344C1.28058 39.6665 0 40.9338 0 42.4999C0 44.066 1.28058 45.3333 2.86344 45.3333H28.6338C30.2164 45.3333 31.4973 44.066 31.4973 42.4999C31.4973 40.9338 30.2164 39.6665 28.6338 39.6665Z" fill="#FFCC00"/>
<path d="M31.4973 22.6665H2.86344C1.28058 22.6665 0 23.9338 0 25.4999C0 27.0661 1.28058 28.3334 2.86344 28.3334H31.4973C33.0799 28.3334 34.3607 27.0661 34.3607 25.4999C34.3607 23.9338 33.0799 22.6665 31.4973 22.6665Z" fill="#FFCC00"/>
<path d="M53.5094 11.7427C64.9015 22.8076 77.8172 35.3528 81.6762 38.9473C82.2104 39.4427 82.9318 39.6998 83.6588 39.6998C83.9999 39.6998 84.3412 39.6445 84.6656 39.5282C84.9145 39.4397 85.5798 39.2044 86.3629 38.6731C91.3933 35.2614 107.813 24.5092 123.165 14.4569L133.874 7.44281C134.59 6.97239 135.057 6.20606 135.141 5.35925C135.225 4.51244 134.923 3.67413 134.314 3.07089C132.302 1.09013 129.635 0 126.8 0H55.6484C53.0955 0 50.5761 0.874436 48.5488 2.45969C47.9057 2.96597 47.5113 3.71875 47.4667 4.53209C47.4247 5.3457 47.7352 6.137 48.3222 6.70411L53.5094 11.7427Z" fill="#FFCC00"/>
<path d="M134.747 15.7798C133.785 15.1351 132.526 15.1239 131.559 15.7577L125.158 19.9495C110.181 29.7556 94.4941 40.0292 89.5979 43.3466C85.644 46.0387 80.7868 45.9032 77.7499 43.0698C73.8492 39.4395 60.9109 26.8723 49.3453 15.6384L47.8408 14.1775C47.0941 13.4497 46.012 13.1841 45.0055 13.4858C44.0044 13.7846 43.2466 14.6009 43.0314 15.6135L34.5896 55.2939C34.4387 56.0079 34.3604 56.7383 34.3604 57.4688C34.3604 63.2767 39.1336 67.9998 45.0029 67.9998H116.154C121.537 67.9998 126.251 64.2173 127.364 59.0017L135.937 18.7069C136.178 17.5839 135.706 16.4274 134.747 15.7798Z" fill="#FFCC00"/>
<path d="M2.86344 11.3334H34.3607C35.9433 11.3334 37.2242 10.0661 37.2242 8.49993C37.2242 6.9338 35.9436 5.6665 34.3607 5.6665H2.86344C1.28058 5.6665 0 6.9338 0 8.49993C0 10.0661 1.28058 11.3334 2.86344 11.3334Z" fill="#FFCC00"/>
</svg>
