<svg width="112" height="112" viewBox="0 0 112 112" fill="none" xmlns="http://www.w3.org/2000/svg">
<path d="M37.9154 36.9687C38.4716 36.9687 39.0161 37.0258 39.5435 37.1369C39.4116 33.914 41.2971 30.8054 44.4613 29.5403C45.3898 29.1701 46.3659 28.9826 47.3614 28.9826C49.5968 28.9826 51.6429 29.9285 53.0928 31.4968L58.861 25.5059C60.5498 23.7535 60.5022 20.964 58.7424 19.2751C57.8883 18.4515 56.7861 18.043 55.6854 18.043C54.5297 18.043 53.3756 18.494 52.5121 19.3952L35.0688 37.5135C35.9842 37.1557 36.9393 36.9687 37.9154 36.9687Z" fill="#FFCC00"/>
<path d="M27.996 77.6808C28.9952 76.0455 30.4625 74.8076 32.2278 74.1066C33.2769 73.6861 34.381 73.4723 35.5085 73.4723C37.1287 73.4723 38.7163 73.921 40.1052 74.7731L41.8953 75.8696L41.7713 75.56L40.4396 72.2168H40.4411L30.6496 47.702C29.9351 45.9162 29.9312 43.98 30.5714 42.1845L29.0775 43.7359L29.0716 43.7302L19.5911 53.5793L21.5613 38.0444C21.7868 36.2521 21.1274 34.5501 19.9084 33.3825C19.0888 32.5879 18.0112 32.0471 16.7845 31.8945C16.5476 31.864 16.3109 31.8484 16.0777 31.8484C13.3492 31.8484 10.9786 33.8833 10.6269 36.6629L1.10273 82.8242C0.667118 84.941 1.34534 87.1344 2.90272 88.632L19.1463 104.274C20.3517 105.434 21.9259 106.033 23.5138 106.033C24.6311 106.033 25.7547 105.737 26.7618 105.13L40.5634 96.8149L30.7471 89.6906C26.7276 87.1111 25.4892 81.7578 27.996 77.6808Z" fill="#FFCC00"/>
<path d="M66.9845 33.1844L67.8175 35.2707L71.444 31.5025C73.1309 29.7504 73.0739 26.9554 71.3215 25.2683C70.4679 24.4469 69.3652 24.0361 68.2648 24.0361C67.111 24.0361 65.9565 24.4886 65.0915 25.3889L61.998 28.6026C64.2334 29.2769 66.081 30.9255 66.9845 33.1844Z" fill="#FFCC00"/>
<path d="M91.184 72.6754L78.6052 41.1817C77.9937 39.6512 76.5224 38.7189 74.9714 38.7189C74.4877 38.7189 73.9948 38.809 73.5192 39C71.5151 39.8022 70.535 42.0795 71.3409 44.0839L77.3879 59.2234C77.5809 59.7064 77.5734 60.2452 77.3688 60.7229C77.1646 61.1982 76.7789 61.5748 76.2951 61.7676C76.0565 61.8636 75.8119 61.9075 75.5693 61.9075C74.7933 61.9075 74.0583 61.4409 73.7522 60.6768L63.3511 34.6362C62.7399 33.1051 61.2706 32.1733 59.7174 32.1733C59.2322 32.1733 58.741 32.2629 58.2635 32.4539C56.2593 33.2544 55.2809 35.532 56.0856 37.5378L66.4847 63.5807C66.6775 64.0622 66.6703 64.601 66.4654 65.0783C66.2612 65.5541 65.875 65.9307 65.3937 66.1234C65.1571 66.2169 64.9125 66.2633 64.6713 66.2633C63.8939 66.2633 63.1564 65.7967 62.8508 65.0307L50.9977 35.3538C50.3865 33.8252 48.9152 32.895 47.362 32.895C46.8788 32.895 46.3876 32.9845 45.9118 33.1736C43.9057 33.9763 42.9275 36.2516 43.73 38.2595L55.585 67.9323C55.778 68.4163 55.7701 68.9551 55.5659 69.4304C55.3613 69.9082 54.9736 70.2845 54.4923 70.4775C54.2554 70.5711 54.0108 70.6172 53.7699 70.6172C52.9925 70.6172 52.255 70.1511 51.9493 69.3845L41.5483 43.3434C40.9385 41.8133 39.4694 40.8811 37.9158 40.8811C37.4325 40.8811 36.9394 40.9706 36.4623 41.1617C34.4562 41.9627 33.4781 44.2397 34.2821 46.2456L45.4092 74.1061L45.4053 74.108L49.1233 83.4159C49.234 83.6964 49.1538 84.0157 48.9226 84.2109C48.7946 84.3196 48.6341 84.3752 48.4719 84.3752C48.3459 84.3752 48.2181 84.3407 48.1048 84.272L38.0594 78.1062C37.2624 77.6192 36.38 77.3843 35.5088 77.3843C34.8836 77.3843 34.263 77.5044 33.6822 77.738C32.7406 78.1126 31.9053 78.7871 31.3342 79.7211C29.9205 82.021 30.6409 85.0323 32.9427 86.448L66.4924 110.8C67.5854 111.591 68.8823 112 70.1931 112C70.98 112 71.7731 111.853 72.5275 111.551L90.2538 104.47C92.898 103.414 94.5047 100.713 94.1706 97.8823L91.1883 72.6936C91.184 72.6891 91.186 72.6812 91.184 72.6754Z" fill="#FFCC00"/>
<path d="M90.4883 23.4268C89.0401 22.7122 87.2766 23.2971 86.5524 24.7451C85.8301 26.1973 86.4205 27.9583 87.8704 28.6807C91.1053 30.2912 93.5183 33.0616 94.6648 36.4852C95.8129 39.9093 95.5589 43.5736 93.9499 46.8062C93.228 48.2584 93.8182 50.0194 95.2684 50.7418C95.6886 50.9502 96.1356 51.0494 96.575 51.0494C97.6526 51.0494 98.6903 50.4531 99.204 49.4238C101.512 44.7866 101.877 39.5286 100.23 34.6185C98.5831 29.7109 95.123 25.7349 90.4883 23.4268Z" fill="#FFCC00"/>
<path d="M94.8522 14.659C93.4134 13.9326 91.6444 14.5292 90.9183 15.9792C90.1965 17.4294 90.7866 19.1909 92.2386 19.9133C103.744 25.6408 108.446 39.6624 102.718 51.1716C101.996 52.6218 102.586 54.3834 104.039 55.1052C104.457 55.3156 104.904 55.4129 105.343 55.4129C106.421 55.4129 107.458 54.817 107.972 53.7853C115.143 39.3821 109.258 21.8292 94.8522 14.659Z" fill="#FFCC00"/>
<path d="M48.2116 13.4554C48.4828 11.8583 47.4072 10.3434 45.8081 10.0715C40.6956 9.21193 35.5658 10.3868 31.3449 13.3884C27.1245 16.3881 24.3238 20.8528 23.4622 25.9601C23.1911 27.5574 24.2667 29.0721 25.8655 29.3435C26.032 29.3706 26.1962 29.3837 26.3584 29.3837C27.7648 29.3837 29.0066 28.3711 29.2475 26.9385C29.8513 23.377 31.8016 20.2629 34.7459 18.1707C37.6861 16.0768 41.2647 15.2514 44.8297 15.8604C46.4347 16.1053 47.942 15.055 48.2116 13.4554Z" fill="#FFCC00"/>
<path d="M16.2099 27.7097C16.3761 27.7367 16.5401 27.7504 16.7028 27.7504C18.1087 27.7504 19.3507 26.7377 19.5933 25.3046C21.7352 12.6337 33.7735 4.0535 46.4615 6.20327C48.0586 6.45333 49.5738 5.39457 49.8455 3.79774C50.1146 2.19844 49.037 0.68521 47.4399 0.413822C39.752 -0.881846 32.0219 0.887634 25.6708 5.40424C19.3185 9.92085 15.1038 16.6401 13.8044 24.3265C13.5352 25.9258 14.6129 27.4388 16.2099 27.7097Z" fill="#FFCC00"/>
</svg>
